<?xml version="1.0" standalone="no"?><!DOCTYPE svg PUBLIC "-//W3C//DTD SVG 1.1//EN" "http://www.w3.org/Graphics/SVG/1.1/DTD/svg11.dtd"><svg t="1534994027369" class="icon" style="" viewBox="0 0 1026 1024" version="1.1" xmlns="http://www.w3.org/2000/svg" p-id="1034" xmlns:xlink="http://www.w3.org/1999/xlink" width="200.390625" height="200"><defs><style type="text/css"></style></defs><path d="M856.84846924 585.91711425a139.70159912 139.70159912 0 0 0-100.73995971 68.85543824 139.90924073 139.90924073 0 0 0-9.28701783 121.56509399 350.67782593 350.67782593 0 0 1-124.48278808 71.98901368 139.73126221 139.73126221 0 0 0-109.98989869-52.81265259 139.87957763 139.87957763 0 0 0-110.02615356 52.77886962 351.00988769 351.00988769 0 0 1-124.48278809-71.95523071 139.90841675 139.90841675 0 0 0-9.25405883-121.56509399 139.69335938 139.69335938 0 0 0-100.7729187-68.85543824 355.51620484 355.51620484 0 0 1 0-143.80087279 139.76257325 139.76257325 0 0 0 100.7729187-68.8208313 139.98092651 139.98092651 0 0 0 9.25405883-121.60134888 350.62261963 350.62261963 0 0 1 124.48278809-71.98901367 139.89935302 139.89935302 0 0 0 110.02615356 52.84973145c43.66323852 0 83.6350708-19.70617676 109.98989869-52.84973145a350.48007202 350.48007202 0 0 1 124.48278808 71.98901367 140.01800537 140.01800537 0 0 0 9.28701783 121.60134888 139.76174927 139.76174927 0 0 0 100.73995971 68.8208313 353.65237427 353.65237427 0 0 1 0 143.80087279m61.74865722-187.25399779c-4.44534302-16.00076294-19.53643799-26.66546631-36.1024475-25.50942994-26.7272644 1.82015992-52.14111328-11.79190063-65.44418336-35.04611206-13.48022461-23.1545105-12.58044434-51.97302247 2.32196046-74.2401123 9.13046265-13.77438354 7.44625854-32.04025268-4.04489137-43.91207886A421.55859375 421.55859375 0 0 0 615.54832886 104.51242065c-16.06338501-4.05395508-32.77688599 3.65679932-40.11520386 18.50564576-11.8059082 24.05181885-36.29443359 39.25085449-63.08432007 39.16104125-26.79071045 0.08981323-51.28170776-15.10922242-63.08761597-39.16021728-7.35150146-14.83483887-24.0501709-22.54559326-40.10778808-18.50564575a421.37402344 421.37402344 0 0 0-199.78665161 115.41000366c-11.53729248 11.87265015-13.23632813 30.18548584-4.08197021 43.97799683 14.90652466 22.2588501 15.80795288 51.06665039 2.32113647 74.20715332-13.31707763 23.23361206-38.72186279 36.84320068-65.44335938 35.04611206-16.58578492-1.25656128-31.71972656 9.45181274-36.06454467 25.50942993A421.26690674 421.26690674 0 0 0 90.12443969 514.03686523c0 39.19235229 5.34594727 78.00485229 15.97357179 115.334198 4.48736573 15.95874023 19.52572632 26.59460449 36.06454467 25.50942993 26.71160888-1.6940918 52.07189942 11.89984131 65.44335938 35.08401489 13.47610474 23.29129028 12.59939575 51.72171021-2.32113647 74.16842652-9.13458252 13.78756714-7.43637085 32.07568359 4.08197021 43.94503785a421.03125 421.03125 0 0 0 199.78665161 115.41000365c16.05184937 4.07125854 32.76699829-3.62878418 40.10778808-18.47433471 11.81085205-24.04440308 36.30514526-39.2310791 63.08761597-39.12643433 26.94973755 0 51.12350464 14.99057007 63.08514405 39.12643433 7.35314942 14.84060669 24.05099487 22.54559326 40.11520385 18.5072937a421.18368531 421.18368531 0 0 0 199.77923584-115.44296264c11.52822876-11.88171387 13.21243286-30.19537354 4.04489136-43.98129273-14.87356568-22.23577881-15.77581787-51.01062011-2.32196045-74.13217164 13.20254516-23.36132813 38.68395997-37.01870727 65.44418335-35.08401489 16.53881836 0.98629761 31.56399536-9.60177612 36.10244751-25.50942993a422.85882568 422.85882568 0 0 0 15.97274781-115.334198c0-39.19976807-5.3838501-78.00650024-15.97274781-115.41165161" p-id="1035"></path><path d="M512.34880493 619.5847168c-58.19815063 0-105.55526734-47.38760376-105.55526733-105.54949951 0-58.23358154 47.3571167-105.55773925 105.55526733-105.55773926 58.19732666 0 105.55444336 47.32415771 105.55444336 105.55773926 0 58.16271972-47.3571167 105.54949951-105.55444336 105.54949951m0-281.47714234c-97.00488281 0-175.92517089 78.88732911-175.9251709 175.92764283 0 97.00653076 78.92028809 175.92764282 175.9251709 175.92764282 97.00405883 0 175.92352295-78.95819092 175.92352295-175.92764282 0-97.04031372-78.91946411-175.92764282-175.92352295-175.92764283" p-id="1036"></path></svg>