<?xml version="1.0" standalone="no"?><!DOCTYPE svg PUBLIC "-//W3C//DTD SVG 1.1//EN" "http://www.w3.org/Graphics/SVG/1.1/DTD/svg11.dtd"><svg t="1528166295063" class="icon" style="" viewBox="0 0 1024 1024" version="1.1" xmlns="http://www.w3.org/2000/svg" p-id="6711" xmlns:xlink="http://www.w3.org/1999/xlink" width="200" height="200"><defs><style type="text/css"></style></defs><path d="M512 51.2c-253.44 0-460.8 207.36-460.8 460.8s207.36 460.8 460.8 460.8 460.8-207.36 460.8-460.8-207.36-460.8-460.8-460.8z m0 870.4c-225.28 0-409.6-184.32-409.6-409.6s184.32-409.6 409.6-409.6 409.6 184.32 409.6 409.6-184.32 409.6-409.6 409.6z" p-id="6712"></path><path d="M512 527.36V332.8c0-12.8-12.8-25.6-25.6-25.6s-25.6 12.8-25.6 25.6v204.8c0 2.56 0 5.12 2.56 10.24 0 2.56 2.56 2.56 2.56 5.12 0 0 0 2.56 2.56 2.56l186.88 186.88c10.24 10.24 25.6 10.24 35.84 0s10.24-25.6 0-35.84l-179.2-179.2z" p-id="6713"></path></svg>