<?xml version="1.0" standalone="no"?><!DOCTYPE svg PUBLIC "-//W3C//DTD SVG 1.1//EN" "http://www.w3.org/Graphics/SVG/1.1/DTD/svg11.dtd"><svg t="1529908537293" class="icon" style="" viewBox="0 0 1024 1024" version="1.1" xmlns="http://www.w3.org/2000/svg" p-id="3458" xmlns:xlink="http://www.w3.org/1999/xlink" width="200" height="200"><defs><style type="text/css"></style></defs><path d="M633.379986 249.497501L553.626441 396.312965a823.754361 823.754361 0 0 0-39.014996 79.335714h-1.357951q-20.891564-47.632765-118.664083-226.151178H319.693155l139.346731 239.417321H344.710803v53.064572h133.914924v72.650413H344.710803v53.848006h133.914924v106.024686h66.591859v-106.024686h129.162094v-53.848006h-129.162094v-72.650413h129.162094V488.914822h-110.881975l141.018055-239.417321z" fill="#ffffff" p-id="3459"></path><path d="M511.843313 0a511.843313 511.843313 0 1 0 511.843314 511.843313A512.522289 512.522289 0 0 0 511.843313 0z m0 968.741814a456.794043 456.794043 0 1 1 456.846272-456.741814A457.264103 457.264103 0 0 1 511.843313 968.741814z" fill="#ffffff" p-id="3460"></path></svg>