<?xml version="1.0" standalone="no"?><!DOCTYPE svg PUBLIC "-//W3C//DTD SVG 1.1//EN" "http://www.w3.org/Graphics/SVG/1.1/DTD/svg11.dtd"><svg t="1528165764297" class="icon" style="" viewBox="0 0 1024 1024" version="1.1" xmlns="http://www.w3.org/2000/svg" p-id="6229" xmlns:xlink="http://www.w3.org/1999/xlink" width="200" height="200"><defs><style type="text/css"></style></defs><path d="M800.7 659.83A177.46 177.46 0 0 0 872.92 517a172.93 172.93 0 1 0-345.54 0 176.15 176.15 0 0 0 72.54 142.81 291.44 291.44 0 0 0-159 239c0 16.52 8.41 29.47 24.28 29.47h468.92c15.87 0 24.29-12.95 24.29-29.47a293.38 293.38 0 0 0-158-239z m0 0" fill="#ffffff" p-id="6230"></path><path d="M519.28 644.61a244.53 244.53 0 0 1-51.49-185.23 231.9 231.9 0 0 1 90.35-151.56 234.46 234.46 0 0 1 213.41-28.17c63.15 24 64.77 49.55 72.22 49.55a28.84 28.84 0 0 0 28.5-29.15v-49.23A150.91 150.91 0 0 0 728.16 94.09H210A150.91 150.91 0 0 0 65.91 250.82V759.9A150.91 150.91 0 0 0 210 916.64h115a25.92 25.92 0 0 0 29.15-25.26 171.62 171.62 0 0 1 17.16-64.77 400 400 0 0 1 61.83-100.71 408.18 408.18 0 0 1 86.14-81.29zM267.66 220.06h209.52a20.41 20.41 0 0 1 19.76 18.14 23 23 0 0 1-19.43 26.87H269.28a20.07 20.07 0 0 1-22.34-21 21.35 21.35 0 0 1 20.72-22.67z m-79-5.5a28.5 28.5 0 0 1 24.94 13.92 28.17 28.17 0 0 1 0 28.5 28.5 28.5 0 0 1-24.94 13.92 28.17 28.17 0 0 1 0-56.34z m164.19 410.3H180.23a25.26 25.26 0 1 1 0-50.19h172.6a25.26 25.26 0 1 1 0 50.19z m58-142.16H180.23c-16.2 0-29.15-8.75-28.5-25.27a25.58 25.58 0 0 1 28.5-25.25H410.8a25.9 25.9 0 0 1 28.49 25.25 25.26 25.26 0 0 1-28.49 25.27z m0 0" fill="#ffffff" p-id="6231"></path><path d="M102.41 652.74a233.58 233.58 0 0 0-36.5 2.89V759.9A150.91 150.91 0 0 0 210 916.64h115a25.61 25.61 0 0 0 6.89-0.17 233.16 233.16 0 0 0 2.26-32c-0.02-127.99-103.76-231.73-231.74-231.73z" fill="#ffffff" p-id="6232"></path></svg>