<?xml version="1.0" encoding="utf-8"?>
<!-- Generator: Adobe Illustrator 22.0.0, SVG Export Plug-In . SVG Version: 6.00 Build 0)  -->
<svg version="1.1" id="图层_1" xmlns="http://www.w3.org/2000/svg" xmlns:xlink="http://www.w3.org/1999/xlink" x="0px" y="0px"
	 viewBox="0 0 200 200" style="enable-background:new 0 0 200 200;" xml:space="preserve">
<style type="text/css">
	.st0{fill:#AAAAAA;}
</style>
<path class="st0" d="M12.5,43.7c0-10.3,8.4-18.7,18.7-18.7h137.5c10.3,0,18.7,8.5,18.7,18.7v112.6c0,10.3-8.4,18.7-18.7,18.7H31.2
	c-10.3,0-18.7-8.5-18.7-18.7V43.7z M64.1,117.2l1.1,2.6c0.3,0.8,0.7,1.5,1.2,2.2c0.4,0.5,0.8,0.8,1.3,1.1c0.6,0.3,1.3,0.4,1.9,0.4
	c1.3,0,2.4-0.5,3.3-1.4c0.9-0.8,1.3-1.9,1.4-3.1c0-1.1-0.5-2.8-1.4-5.2L60.5,82.3c-0.5-1.3-0.9-2.5-1.4-3.8
	c-0.4-0.9-0.8-1.8-1.4-2.7c-0.6-0.8-1.3-1.5-2.2-2c-1-0.6-2.2-0.8-3.3-0.8c-1.1,0-2.3,0.2-3.3,0.8c-0.9,0.5-1.6,1.2-2.1,2.1
	c-0.6,1-1.1,2.1-1.5,3.2l-1.2,3.3l-12,31.7c-0.5,1.2-0.9,2.2-1.1,3c-0.2,0.7-0.3,1.4-0.3,2.1c0,1.2,0.5,2.3,1.4,3.1
	c0.8,0.9,2,1.4,3.2,1.4c1.4,0,2.4-0.4,3-1.3c0.6-0.8,1.4-2.5,2.3-4.9l2.2-6.3h19.1L64.1,117.2L64.1,117.2z M45.2,103.6l6.9-20.1
	l7.1,20.1H45.2z M101.3,122.7c2.5,0,4.6-0.1,6.5-0.4c1.9-0.2,3.5-0.7,4.9-1.3c2.3-1,4.2-2.7,5.4-4.8c1.3-2.2,2-4.6,2-7.4
	c0-5.9-3.1-9.9-9.3-11.9c4.7-2.2,7.1-5.8,7.1-10.7c0.1-4.1-2-8-5.6-10.2c-1.4-0.8-2.9-1.4-4.4-1.7c-1.9-0.3-3.9-0.4-5.8-0.4H86.9
	c-2,0-3.5,0.5-4.4,1.4c-0.9,0.9-1.3,2.5-1.3,4.6v36.7c0,2.1,0.4,3.6,1.3,4.6c0.9,1,2.4,1.4,4.4,1.4H101.3z M90.7,101h9.9
	c3.3,0,5.8,0.6,7.5,1.7c1.7,1.1,2.5,2.9,2.5,5.4c0,4.8-3.2,7.2-9.6,7.2H90.7C90.7,115.3,90.7,101,90.7,101z M90.7,81.3h7.7
	c3.5,0,6,0.4,7.7,1.2c1.7,0.8,2.5,2.5,2.5,4.9c0,1.1-0.3,2.2-0.8,3.1c-0.6,1.2-1.7,2.2-3,2.7c-1.3,0.5-3.1,0.7-5.5,0.7h-8.7V81.3
	L90.7,81.3z M168.4,107.3c0.1-2.3-1.8-4.2-4.1-4.3c0,0,0,0-0.1,0c-1.3,0-2.3,0.4-2.9,1.2c-0.7,1-1.2,2-1.5,3.1
	c-0.8,2.5-2.3,4.6-4.3,6.2c-2,1.5-4.5,2.2-6.9,2.1c-2.3,0-4.6-0.6-6.6-1.9c-2-1.4-3.5-3.4-4.3-5.6c-1.1-3-1.6-6.2-1.5-9.5
	c0-5.7,1.2-10.1,3.5-13.2c2.1-3,5.6-4.7,9.3-4.6c2.5,0,4.5,0.6,6.2,1.8c1.7,1.2,3.1,3,4.4,5.4c0.8,1.5,1.4,2.5,2,3.1
	c0.6,0.6,1.5,0.9,2.7,0.9c1.1,0,2.1-0.5,2.8-1.3c0.7-0.8,1.2-1.9,1.2-3c0-2-0.8-4.2-2.4-6.6c-1.8-2.5-4.1-4.5-6.8-5.8
	c-3.1-1.6-6.6-2.4-10.2-2.4c-3.1,0-6.1,0.6-8.8,1.7c-2.8,1.2-5.2,2.8-7.2,5c-2.1,2.2-3.6,4.9-4.7,8c-1.1,3.4-1.7,7-1.6,10.5
	c0,2.4,0.2,4.7,0.7,6.9c0.4,2.1,1.1,4.2,2,6.1c0.9,1.9,1.9,3.6,3.2,5.1c1.4,1.7,2.9,3.1,4.6,4.1c1.7,1,3.5,1.8,5.5,2.3
	c2,0.5,4.3,0.7,6.8,0.7c3.3,0,6.1-0.5,8.6-1.6c4.3-1.9,7.7-5.3,9.5-9.6C168.1,110.5,168.5,108.9,168.4,107.3L168.4,107.3z"/>
</svg>
