<?xml version="1.0" standalone="no"?><!DOCTYPE svg PUBLIC "-//W3C//DTD SVG 1.1//EN" "http://www.w3.org/Graphics/SVG/1.1/DTD/svg11.dtd"><svg t="1528100051697" class="icon" style="" viewBox="0 0 1024 1024" version="1.1" xmlns="http://www.w3.org/2000/svg" p-id="4953" xmlns:xlink="http://www.w3.org/1999/xlink" width="200" height="200"><defs><style type="text/css"></style></defs><path d="M532.48 509.481l-26.952-8.97c-4.444-1.495-8.908-3.216-13.107-5.202l-24.555-11.571 17.858-20.44c3.912-4.464 5.796-8.622 5.796-12.738h40.96v58.921z m0 16.835l-26.153-7.537c-9.667-2.785-19.046-6.083-27.873-9.81l-34.468-14.52 30.802-21.218c4.198-2.887 7.762-6.082 10.588-9.502l10.138-12.247 14.377 6.778a78.2 78.2 0 0 0 8.601 3.4l13.988 4.65v60.006zM307.2 983.04c-109.22 0-225.28-35.881-225.28-102.4V737.28h40.96c0 15.831 30.72 38.687 89.416 51.671 57.405 12.76 132.423 12.76 189.788 0 14.274-3.072 27.197-6.902 38.502-11.366a64.784 64.784 0 0 0 6.226-2.458c4.526-1.761 7.721-3.174 10.609-4.772 4.055-1.945 6.533-3.277 9.031-4.751 2.745-1.639 5.264-3.134 7.455-4.854l15.258 14.193-12.82-15.975 5.877-4.997c0.43-0.389 1.065-0.942 1.536-1.536l6.103-8.397c1.167-2.293 1.659-4.382 1.659-6.758h40.96v143.36c0 66.519-116.06 102.4-225.28 102.4zM122.88 798.454v82.186c0 25.068 71.803 61.44 184.32 61.44s184.32-36.372 184.32-61.44v-82.35c-1.331 0.84-2.703 1.68-4.116 2.498-3.544 2.13-7.21 4.076-11.346 6.042-3.257 1.864-8.254 4.117-13.497 6.124-1.7 0.819-4.853 2.109-8.007 3.133-12.33 4.895-27.382 9.36-43.705 12.902-63.774 14.193-143.421 14.214-207.442-0.02-33.239-7.393-60.395-17.777-80.527-30.515z m542.72-545.73c-41.943 0-81.633-3.564-117.985-10.61-87.696-16.854-138.015-50.319-138.015-91.79 0-67.237 128.778-102.4 256-102.4s256 35.163 256 102.4c0 41.205-50.217 74.67-137.81 91.77-35.84 6.963-76.718 10.63-118.19 10.63z m0-163.84c-139.141 0-215.04 40.59-215.04 61.44 0 12.144 28.467 36.884 104.817 51.568 33.812 6.553 70.901 9.871 110.223 9.871 38.892 0 77.087-3.42 110.387-9.871 76.227-14.91 104.653-39.547 104.653-51.569 0-20.848-75.899-61.44-215.04-61.44z m0 307.2c-41.943 0-81.633-3.564-117.985-10.61-87.696-16.854-138.015-50.319-138.015-91.79v-143.36h40.96c0 12.144 28.467 36.884 104.817 51.568 33.812 6.553 70.901 9.871 110.223 9.871 38.892 0 77.087-3.42 110.387-9.871 76.227-14.91 104.653-39.547 104.653-51.569h40.96v143.36c0 41.206-50.217 74.67-137.81 91.771-35.84 6.963-76.718 10.63-118.19 10.63zM450.56 208.526v85.156c0 12.145 28.467 36.885 104.817 51.569 33.812 6.553 70.901 9.871 110.223 9.871 38.892 0 77.087-3.42 110.387-9.871 76.227-14.91 104.653-39.547 104.653-51.569v-85.32c-23.286 14.214-55.992 25.744-96.85 33.731-35.86 6.943-76.718 10.63-118.19 10.63-41.943 0-81.633-3.564-117.985-10.61-40.94-7.864-73.728-19.353-97.055-33.587zM307.2 696.32c-36.864 0-71.762-3.604-103.772-10.711-77.21-17.1-121.508-50.524-121.508-91.689V450.56h40.96c0 15.831 30.72 38.687 89.416 51.671 57.487 12.78 132.321 12.78 189.788 0 7.598-1.72 15.073-3.625 21.995-5.734 21.074-6.35 38.4-14.254 50.197-22.938l9.38-6.881 10.71 4.526c7.353 3.092 15.197 5.857 23.327 8.192l14.787 4.28V593.92c0 3.215-0.307 6.472-0.942 10.015-0.655 3.952-2.007 8.212-3.85 12.144-0.758 1.844-1.639 3.687-2.56 5.53l-5.632 11.428-2.499 0.04c-4.956 6.104-11.776 12.37-19.149 17.347l-14.13-15.012 12.349 16.344c-3.564 2.662-7.107 4.75-10.67 6.799-7.62 4.424-15.832 8.335-24.433 11.633-1.393 0.798-4.731 2.13-8.376 3.44-5.12 1.925-10.691 3.728-16.712 5.51-7.68 2.334-16.18 4.525-24.883 6.471-32.031 7.107-66.929 10.711-103.793 10.711zM122.88 511.734v82.186c0 15.831 30.72 38.687 89.416 51.671 57.405 12.76 132.423 12.76 189.788 0 7.639-1.7 15.135-3.645 22.036-5.734 5.182-1.536 9.851-3.01 14.336-4.69 2.315-0.84 4.28-1.557 6.083-2.437 8.356-3.318 14.602-6.308 20.337-9.626 2.273-1.29 4.403-2.458 6.184-3.81l3.85-2.826c4.22-2.867 8.11-6.43 11.265-10.383 1.33-1.536 1.781-2.355 2.253-3.092l0.88-1.352c0.164-0.369 0.307-0.696 0.43-1.045l1.475-4.014c0.205-0.942 0.307-1.802 0.307-2.662v-79.892c-0.88-0.328-1.761-0.635-2.642-0.963-14.356 8.786-32.072 16.384-52.9 22.63-7.72 2.376-16.22 4.547-24.944 6.513-63.345 14.09-144.405 14.07-207.606 0.02-33.26-7.372-60.416-17.756-80.548-30.494zM307.2 839.68c-36.864 0-71.762-3.604-103.772-10.711-77.21-17.1-121.508-50.524-121.508-91.689V593.92h40.96c0 15.831 30.72 38.687 89.416 51.671 57.405 12.76 132.423 12.76 189.788 0 7.639-1.7 15.135-3.645 22.036-5.734 5.182-1.536 9.851-3.01 14.336-4.69 2.315-0.84 4.28-1.557 6.083-2.437 8.356-3.318 14.602-6.308 20.337-9.626 2.273-1.29 4.403-2.458 6.184-3.81l3.85-2.826c4.22-2.867 8.11-6.43 11.265-10.383 1.33-1.536 1.781-2.355 2.253-3.092l0.88-1.352c0.164-0.369 0.307-0.696 0.43-1.045l1.475-4.014c0.205-0.942 0.307-1.802 0.307-2.662h2.662l0.902-1.454 11.591-0.184v1.638h25.805v143.36c0 8.97-2.089 17.49-6.205 25.416-0.983 1.966-2.315 4.157-3.707 6.369-0.779 1.31-1.844 2.806-3.318 4.67-0.492 0.84-1.925 2.62-3.727 4.525-1.762 2.171-3.892 4.383-6.37 6.534-2.334 2.109-4.034 3.584-5.632 4.792-1.474 1.31-2.99 2.437-4.67 3.625-3.112 2.457-7.167 5.038-11.468 7.577-3.543 2.13-7.209 4.076-11.346 6.042-3.256 1.864-8.253 4.117-13.496 6.124-1.7 0.819-4.854 2.109-8.008 3.133-12.329 4.895-27.382 9.36-43.704 12.902-31.867 7.087-66.765 10.691-103.629 10.691zM122.88 655.094v82.186c0 15.831 30.72 38.687 89.416 51.671 57.405 12.76 132.423 12.76 189.788 0 14.274-3.072 27.197-6.902 38.502-11.366a64.784 64.784 0 0 0 6.226-2.458c4.526-1.761 7.721-3.174 10.609-4.772 4.055-1.945 6.533-3.277 9.031-4.751 2.745-1.639 5.264-3.134 7.455-4.854l15.258 14.193-12.82-15.975 5.877-4.997c0.43-0.389 1.065-0.942 1.536-1.536l3.38-4.055c1.474-2.17 2.17-3.256 2.723-4.342 1.167-2.293 1.659-4.382 1.659-6.758v-82.391c-2.028 1.29-4.055 2.478-6.083 3.645-7.618 4.424-15.83 8.336-24.432 11.633-1.393 0.799-4.731 2.13-8.377 3.44-5.12 1.926-10.69 3.728-16.711 5.51-7.68 2.335-16.18 4.526-24.883 6.471-64.103 14.275-143.586 14.255-207.606 0.021-33.26-7.393-60.416-17.777-80.548-30.515z m542.72 27.71c-42.004 0-81.674-3.585-117.985-10.63-7.619-1.515-14.705-3.01-21.545-4.73l-9.954-2.54c-3.481-0.86-7.024-1.823-10.588-2.99l-14.008-4.67V471.43l26.46 8.09c11.674 3.563 24.228 6.635 37.335 9.093 33.874 6.574 70.963 9.892 110.285 9.892 38.892 0 77.087-3.42 110.387-9.872 76.227-14.91 104.653-39.567 104.653-51.589h40.96v143.36c0 41.206-50.217 74.67-137.79 91.771-35.819 6.943-76.677 10.63-118.21 10.63zM532.48 626.79l3.502 0.902c6.308 1.576 12.739 2.928 19.579 4.3 33.587 6.513 70.656 9.83 110.039 9.83 38.953 0 77.128-3.42 110.387-9.85 76.227-14.91 104.653-39.547 104.653-51.569v-85.32c-23.286 14.214-55.992 25.744-96.85 33.731-35.86 6.943-76.718 10.63-118.19 10.63-41.943 0-81.633-3.585-117.985-10.61a429.596 429.596 0 0 1-15.135-3.153v101.11zM665.6 826.163c-58.06 0-114.688-7.352-159.457-20.726l-14.623-4.362V614.072l26.931 8.95c2.58 0.86 5.161 1.536 7.926 2.232l9.585 2.438c6.307 1.576 12.738 2.928 19.578 4.3 33.588 6.513 70.656 9.83 110.04 9.83 38.952 0 77.127-3.42 110.387-9.85 76.247-14.91 104.673-39.547 104.673-51.569h40.96v143.36c0 67.216-128.778 102.4-256 102.4z m-133.12-55.972c38.564 9.728 85.156 14.992 133.12 14.992 139.141 0 215.04-40.571 215.04-61.44v-85.32c-23.286 14.213-55.992 25.764-96.83 33.73-35.819 6.943-76.677 10.63-118.21 10.63-42.004 0-81.674-3.584-117.985-10.63a732.306 732.306 0 0 1-15.135-3.194V770.19zM307.2 552.96c-36.29 0-72.172-3.707-103.772-10.711-77.21-17.121-121.508-50.545-121.508-91.689 0-66.519 116.06-102.4 225.28-102.4 46.551 0 91.095 5.96 128.758 17.244 62.259 18.698 96.522 48.927 96.522 85.156 0 14.07-5.51 27.77-15.913 39.69-4.874 5.898-11.243 11.653-18.555 16.691-15.237 11.203-36.27 20.992-62.034 28.754-7.72 2.376-16.22 4.547-24.944 6.513-31.662 7.045-67.543 10.752-103.834 10.752z m0-163.84c-112.517 0-184.32 36.393-184.32 61.44 0 15.831 30.72 38.687 89.416 51.671 57.487 12.78 132.321 12.78 189.788 0 7.598-1.72 15.073-3.625 21.995-5.734 21.074-6.35 38.4-14.254 50.197-22.938 4.71-3.256 8.274-6.451 11.1-9.871 4.26-4.854 6.144-9.012 6.144-13.128 0-12.8-20.828-31.949-67.338-45.937-33.874-10.137-74.343-15.503-116.982-15.503z m358.4 150.323c-41.943 0-81.633-3.584-117.985-10.608-14.46-2.724-28.508-6.144-41.595-10.159-9.36-2.703-18.74-6-27.587-9.728l-34.468-14.52 30.802-21.217c4.199-2.888 7.762-6.083 10.589-9.503 4.28-4.874 6.164-9.032 6.164-13.148 0-12.8-20.828-31.949-67.338-45.937l-14.582-4.382V293.683h40.96c0 12.145 28.467 36.885 104.817 51.569 33.812 6.553 70.901 9.871 110.223 9.871 38.892 0 77.087-3.42 110.387-9.871 76.227-14.89 104.653-39.547 104.653-51.569h40.96v143.36c0 41.206-50.217 74.67-137.81 91.771-35.84 6.943-76.718 10.63-118.19 10.63z m-142.213-58.347c10.24 2.928 20.89 5.427 31.928 7.495 33.874 6.574 70.963 9.892 110.285 9.892 38.892 0 77.087-3.42 110.387-9.871 76.227-14.89 104.653-39.547 104.653-51.569v-85.32c-23.286 14.214-55.992 25.744-96.85 33.731-35.86 6.943-76.718 10.63-118.19 10.63-41.943 0-81.633-3.564-117.985-10.61-40.94-7.864-73.728-19.353-97.055-33.587v18.289c52.982 18.862 81.92 47.104 81.92 80.384 0 10.588-3.113 20.972-9.093 30.536z" fill="" p-id="4954"></path></svg>