<?xml version="1.0" standalone="no"?><!DOCTYPE svg PUBLIC "-//W3C//DTD SVG 1.1//EN" "http://www.w3.org/Graphics/SVG/1.1/DTD/svg11.dtd"><svg t="1528166238144" class="icon" style="" viewBox="0 0 1024 1024" version="1.1" xmlns="http://www.w3.org/2000/svg" p-id="6597" xmlns:xlink="http://www.w3.org/1999/xlink" width="200" height="200"><defs><style type="text/css"></style></defs><path d="M803.719529 559.254588c-5.601882 0-11.203765 0.301176-16.805647 0.873412-0.451765 0.030118-0.873412 0.120471-1.295058 0.180706a528.263529 528.263529 0 0 0-127.277177-54.091294 272.414118 272.414118 0 0 0 48.519529-43.550118c0.873412-0.873412 1.776941-2.048 2.650353-2.951529l7.951059-9.728c4.126118-5.300706 7.951059-10.601412 11.474824-16.203294a211.425882 211.425882 0 0 0 17.679059-30.629647c2.349176-4.427294 4.427294-8.824471 6.174117-13.251765 0.301176-0.602353 0.301176-0.873412 0.301177-1.174588a262.535529 262.535529 0 0 0 20.329411-101.616942 265.667765 265.667765 0 0 0-142.275764-235.068235 268.649412 268.649412 0 0 0-66.56-24.455529A264.673882 264.673882 0 0 0 518.324706 21.985882c-3.252706-0.301176-6.776471-0.301176-10.300235-0.301176-17.980235 0-35.358118 1.776941-52.434824 4.999529-121.374118 24.455529-212.992 131.975529-212.992 260.427294a264.854588 264.854588 0 0 0 115.169882 218.864942v0.210823c-75.926588 20.901647-144.233412 57.042824-199.951058 104.809412C67.584 687.977412 10.179765 796.792471 10.511059 917.534118c0 4.638118 0 9.276235 0.331294 13.94447h66.349176c-0.662588-4.638118-0.662588-9.276235-0.662588-13.94447 0.331294-99.207529 46.772706-189.44 124.747294-256.451765 77.643294-66.680471 185.795765-108.483765 306.537412-108.483765h0.331294c67.041882 0 130.198588 13.372235 186.608941 36.442353a215.371294 215.371294 0 0 0-107.038117 186.127059 216.064 216.064 0 0 0 215.943529 215.943529c119.296 0 216.214588-96.617412 216.214588-215.943529s-96.858353-215.913412-216.154353-215.913412z m-494.832941-272.143059a197.872941 197.872941 0 0 1 58.337883-140.8 198.324706 198.324706 0 0 1 140.8-58.036705c7.077647 0 14.155294 0.301176 20.901647 0.873411a201.878588 201.878588 0 0 1 119.597176 57.133177 197.872941 197.872941 0 0 1 58.337882 140.8c0 29.756235-6.475294 58.036706-18.251294 83.06447a91.557647 91.557647 0 0 1-5.300706 10.601412c-1.776941 3.824941-4.126118 7.649882-6.475294 11.474824-1.174588 2.048-2.349176 4.126118-3.824941 6.174117v0.301177a243.651765 243.651765 0 0 1-22.106353 26.804706l-2.349176 2.349176a184.229647 184.229647 0 0 1-34.755765 27.678118 194.710588 194.710588 0 0 1-105.472 30.629647H506.578824c-13.552941 0-27.105882-1.475765-39.755295-4.427294-0.602353 0-0.873412 0-1.174588-0.301177a196.065882 196.065882 0 0 1-98.394353-53.609412 197.391059 197.391059 0 0 1-58.368-140.709647z m456.824471 601.780706l-103.996235-103.996235 46.832941-47.134118 57.133176 57.163294 91.617883-91.316705 41.833411-41.833412 46.832941 46.832941-180.254117 180.284235z" p-id="6598"></path></svg>