<?xml version="1.0" standalone="no"?><!DOCTYPE svg PUBLIC "-//W3C//DTD SVG 1.1//EN" "http://www.w3.org/Graphics/SVG/1.1/DTD/svg11.dtd"><svg t="1534994517209" class="icon" style="" viewBox="0 0 1024 1024" version="1.1" xmlns="http://www.w3.org/2000/svg" p-id="1557" xmlns:xlink="http://www.w3.org/1999/xlink" width="200" height="200"><defs><style type="text/css"></style></defs><path d="M389.12 532.907a227.556 227.556 0 1 1 245.732 0c143.843 50.63 246.926 187.733 246.926 348.87a28.444 28.444 0 0 1-28.445 28.445H170.667a28.444 28.444 0 0 1-28.445-28.444c0-161.138 103.083-298.212 246.898-348.871z m375.751-21.078a28.33 28.33 0 0 1-25.315-28.273 28.33 28.33 0 0 1 28.785-28.445A113.778 113.778 0 0 0 768 227.556a28.444 28.444 0 0 1 0-56.89 170.667 170.667 0 0 1 95.232 312.32 286.663 286.663 0 0 1 158.92 256.57A28.444 28.444 0 0 1 993.706 768h-86.045a28.444 28.444 0 0 1 0-56.889h55.808A229.632 229.632 0 0 0 764.814 511.83zM255.943 512A229.632 229.632 0 0 0 58.624 711.111h55.78a28.444 28.444 0 0 1 0 56.889h-85.96A28.444 28.444 0 0 1 0 739.556C0 627.484 64.683 529.35 159.972 482.418A170.667 170.667 0 0 1 256 170.667a28.444 28.444 0 1 1 0 56.889 113.778 113.778 0 1 0 0 227.555 28.444 28.444 0 1 1-0.028 56.889zM512 512a170.667 170.667 0 1 0 0-341.333A170.667 170.667 0 0 0 512 512z m0 56.889c-163.214 0-297.244 124.956-311.609 284.444H823.61C809.244 693.845 675.214 568.89 512 568.89z" fill="" p-id="1558"></path></svg>