<?xml version="1.0" standalone="no"?><!DOCTYPE svg PUBLIC "-//W3C//DTD SVG 1.1//EN" "http://www.w3.org/Graphics/SVG/1.1/DTD/svg11.dtd"><svg t="1536807220790" class="icon" style="" viewBox="0 0 1071 1024" version="1.1" xmlns="http://www.w3.org/2000/svg" p-id="3277" xmlns:xlink="http://www.w3.org/1999/xlink" width="209.1796875" height="200"><defs><style type="text/css"></style></defs><path d="M355.78906279 633.2890625h-207.421875c-41.01562529 0-72.89062471 31.87500029-72.89062558 72.89062471v180.11718808c0 41.01562529 31.87500029 72.89062471 72.89062558 72.89062471h207.421875c41.01562529 0 73.00781279-31.87500029 73.00781192-72.89062471V706.29687529c-0.11718721-41.1328125-31.9921875-73.00781279-73.00781192-73.00781279z m22.8515625 253.00781279c0 11.36718721-9.140625 22.73437529-22.8515625 22.73437442h-207.421875c-11.36718721 0-22.8515625-9.140625-22.8515625-22.73437442V706.29687529c0-11.36718721 9.140625-22.8515625 22.8515625-22.8515625h207.421875c11.36718721 0 22.8515625 9.140625 22.8515625 22.8515625v180zM633.87500029 77.00000029H426.45312529c-41.01562529 0-72.89062471 31.87500029-72.89062558 72.89062471v180.11718721c0 41.01562529 31.87500029 72.89062471 72.89062558 72.89062558h84.375l50.15624942-2.22656308H633.87500029c41.01562529 0 72.89062471-31.87500029 72.89062471-72.89062471V150.00781221c0.11718721-41.01562529-31.87500029-73.00781279-72.89062471-73.00781192z m22.8515625 253.00781192c0 11.36718721-9.140625 22.8515625-22.73437529 22.8515625l-207.421875-2.22656221c-11.36718721 0-22.8515625-9.140625-22.8515625-22.8515625V150.00781221c0-11.36718721 9.140625-22.8515625 22.8515625-22.8515625h207.421875c11.36718721 0 22.73437529 9.140625 22.73437529 22.8515625v180zM914.30468721 633.2890625h-207.421875c-41.01562529 0-72.89062471 31.87500029-72.89062471 72.89062471v180.11718808c0 41.01562529 31.87500029 72.89062471 72.89062471 72.89062471h207.421875c41.01562529 0 72.89062471-31.87500029 72.89062558-72.89062471V706.29687529c0-41.1328125-31.87500029-73.00781279-72.89062558-73.00781279z m20.50781308 253.00781279c0 11.36718721-9.140625 22.73437529-22.8515625 22.73437442h-207.421875c-11.36718721 0-22.73437529-9.140625-22.73437529-22.73437442V706.29687529c0-11.36718721 9.140625-22.8515625 22.73437529-22.8515625h207.421875c11.36718721 0 22.8515625 9.140625 22.8515625 22.8515625v180z" fill="#ffffff" p-id="3278"></path><path d="M834.49999971 635.51562471V526.0625c0-13.7109375-11.36718721-25.07812471-25.07812471-25.07812471h-250.78124971V400.67187471H508.484375v100.31250058H248.6796875c-13.7109375 0-22.8515625 11.36718721-22.8515625 22.73437442v109.45312558h52.3828125v-82.03125058h506.13281279v82.03125058h50.15624942v2.34374942z" fill="#ffffff" p-id="3279"></path></svg>