<?xml version="1.0" standalone="no"?><!DOCTYPE svg PUBLIC "-//W3C//DTD SVG 1.1//EN" "http://www.w3.org/Graphics/SVG/1.1/DTD/svg11.dtd"><svg t="1534994386774" class="icon" style="" viewBox="0 0 1024 1024" version="1.1" xmlns="http://www.w3.org/2000/svg" p-id="1448" xmlns:xlink="http://www.w3.org/1999/xlink" width="200" height="200"><defs><style type="text/css"></style></defs><path d="M359.625102 292.462958 885.368104 292.462958c40.584324 0 73.42836-32.899294 73.42836-73.454966S925.952428 145.568377 885.368104 145.568377L359.625102 145.568377c-40.564881 0-73.446779 32.884968-73.446779 73.439616C286.1773 259.563664 319.060221 292.462958 359.625102 292.462958L359.625102 292.462958zM145.89123 145.567353l-8.420787 0c-40.571021 0-73.453942 32.882921-73.453942 73.438593 0 40.555671 32.882921 73.454966 73.453942 73.454966l8.420787 0c40.581254 0 73.463152-32.899294 73.463152-73.454966C219.354382 178.452321 186.473507 145.567353 145.89123 145.567353L145.89123 145.567353zM885.366058 439.355493 359.625102 439.355493c-40.564881 0-73.446779 32.882921-73.446779 73.440639 0 40.559764 32.881898 73.457012 73.446779 73.457012L885.368104 586.253144c40.584324 0 73.42836-32.899294 73.42836-73.457012C958.794417 472.240461 925.950382 439.355493 885.366058 439.355493L885.366058 439.355493zM145.89123 439.355493l-8.420787 0c-40.571021 0-73.453942 32.882921-73.453942 73.440639 0 40.559764 32.882921 73.457012 73.453942 73.457012l8.420787 0c40.581254 0 73.463152-32.899294 73.463152-73.457012C219.354382 472.240461 186.473507 439.355493 145.89123 439.355493L145.89123 439.355493zM885.366058 733.131353 359.625102 733.131353c-40.564881 0-73.446779 32.896224-73.446779 73.446779 0 40.562834 32.881898 73.452919 73.446779 73.452919L885.368104 880.031051c40.584324 0 73.42836-32.891108 73.42836-73.452919C958.794417 766.027577 925.950382 733.131353 885.366058 733.131353L885.366058 733.131353zM145.89123 733.131353l-8.420787 0c-40.571021 0-73.453942 32.896224-73.453942 73.446779 0 40.562834 32.882921 73.452919 73.453942 73.452919l8.420787 0c40.581254 0 73.463152-32.891108 73.463152-73.452919C219.354382 766.027577 186.473507 733.131353 145.89123 733.131353L145.89123 733.131353z" p-id="1449"></path></svg>