<?xml version="1.0" standalone="no"?><!DOCTYPE svg PUBLIC "-//W3C//DTD SVG 1.1//EN" "http://www.w3.org/Graphics/SVG/1.1/DTD/svg11.dtd"><svg t="1533896372100" class="icon" style="" viewBox="0 0 1024 1024" version="1.1" xmlns="http://www.w3.org/2000/svg" p-id="1558" xmlns:xlink="http://www.w3.org/1999/xlink" width="200" height="200"><defs><style type="text/css"></style></defs><path d="M965.632 338.432c0 1.024-0.512 1.536-0.512 2.048 0 3.584-1.024 7.68-2.048 10.752-1.536 4.096-4.096 7.68-7.168 10.752l-0.512 0.512-251.904 251.904c-7.168 7.168-15.36 9.216-24.064 9.216-9.216 0-17.408-5.12-24.576-11.776-13.312-13.312-13.312-38.912 0-52.224L848.384 358.4H271.36c-22.528 0-159.744 60.928-159.744 229.376v171.52s4.608 40.448-33.28 40.448c-34.816 0-33.792-40.448-33.792-40.448v-171.52c0-188.416 136.192-278.016 206.848-292.864 2.048-0.512 13.312-3.072 15.872-3.072h581.12L655.36 103.936c-13.312-13.312-13.312-28.16 0-41.472 13.312-13.312 35.328-13.312 48.64 0l252.416 252.416c0.512 0.512 1.024 1.536 1.536 2.048 2.048 2.56 4.608 5.632 5.632 9.216 1.536 3.584 2.048 7.68 2.048 11.776v0.512z m-53.248 353.28v200.704H111.616c-66.56 0-66.56 66.56 0 66.56h800.768c36.864 0 66.56-29.696 66.56-66.56v-200.704c0-67.072-66.56-67.072-66.56 0z" p-id="1559"></path></svg>