<?xml version="1.0" encoding="utf-8"?>
<!-- Generator: Adobe Illustrator 22.0.0, SVG Export Plug-In . SVG Version: 6.00 Build 0)  -->
<svg version="1.1" id="图层_1" xmlns="http://www.w3.org/2000/svg" xmlns:xlink="http://www.w3.org/1999/xlink" x="0px" y="0px"
	 viewBox="0 0 200 200" style="enable-background:new 0 0 200 200;" xml:space="preserve">
<style type="text/css">
	.st0{fill:#AAAAAA;}
	.st1{fill:#FFFFFF;}
</style>
<path class="st0" d="M193.4,84.2c-17.3-16.7-52.2-44.6-93.4-44.6s-76.1,28-93.4,44.6c-8.5,8.2-8.8,21.7-0.6,30.2
	c0.2,0.2,0.4,0.4,0.6,0.6c17.3,16.7,52.2,44.6,93.4,44.6s76.1-28,93.4-44.6c8.5-8.2,8.8-21.7,0.6-30.2
	C193.8,84.6,193.6,84.4,193.4,84.2z M185.3,106.6c-16,15.3-48.4,41.3-85.3,41.3s-69.3-26-85.3-41.3c-3.8-3.7-4-9.7-0.3-13.6
	c0.1-0.1,0.2-0.2,0.3-0.3c16-15.5,48.4-41.3,85.3-41.3s69.3,25.9,85.3,41.3c3.8,3.7,4,9.7,0.3,13.6
	C185.5,106.4,185.4,106.5,185.3,106.6z"/>
<path class="st0" d="M100,69.4c-16.7,0-30.3,13.6-30.3,30.3S83.3,130,100,130c16.7,0,30.3-13.6,30.3-30.3c0,0,0,0,0,0
	C130.3,82.9,116.7,69.4,100,69.4L100,69.4z M100,118c-10.2,0-18.5-8.3-18.5-18.5s8.3-18.5,18.5-18.5s18.5,8.3,18.5,18.5l0,0
	C118.5,109.7,110.2,118,100,118z"/>
<rect x="4.7" y="89.7" transform="matrix(0.7071 -0.7071 0.7071 0.7071 -45.7417 98.6714)" class="st1" width="183.1" height="29.6"/>
<path class="st0" d="M152.6,47.9c-2.3-2.3-6.1-2.3-8.4,0c0,0,0,0,0,0l-95.2,95.3c-2.3,2.3-2.3,6.1,0,8.4s6.1,2.3,8.4,0l0,0
	l95.2-95.2C154.9,54,154.9,50.3,152.6,47.9C152.6,47.9,152.6,47.9,152.6,47.9L152.6,47.9z"/>
</svg>
