<?xml version="1.0" standalone="no"?><!DOCTYPE svg PUBLIC "-//W3C//DTD SVG 1.1//EN" "http://www.w3.org/Graphics/SVG/1.1/DTD/svg11.dtd"><svg t="1540367129398" class="icon" style="" viewBox="0 0 1024 1024" version="1.1" xmlns="http://www.w3.org/2000/svg" p-id="1635" xmlns:xlink="http://www.w3.org/1999/xlink" width="200" height="200"><defs><style type="text/css"></style></defs><path d="M990.208 431.104c-88.576-85.504-267.264-228.352-478.208-228.352s-389.632 143.36-478.208 228.352c-43.52 41.984-45.056 111.104-3.072 154.624l3.072 3.072c88.576 85.504 267.264 228.352 478.208 228.352s389.632-143.36 478.208-228.352c43.52-41.984 45.056-111.104 3.072-154.624l-3.072-3.072z m-41.472 114.688c-81.92 78.336-247.808 211.456-436.736 211.456s-354.816-133.12-436.736-211.456c-19.456-18.944-20.48-49.664-1.536-69.632l1.536-1.536c81.92-79.36 247.808-211.456 436.736-211.456s354.816 132.608 436.736 211.456c19.456 18.944 20.48 49.664 1.536 69.632l-1.536 1.536z" fill="#ffffff" p-id="1636"></path><path d="M512 355.328c-85.504 0-155.136 69.632-155.136 155.136S426.496 665.6 512 665.6c85.504 0 155.136-69.632 155.136-155.136 0-86.016-69.632-155.136-155.136-155.136z m0 248.832c-52.224 0-94.72-42.496-94.72-94.72S459.776 414.72 512 414.72s94.72 42.496 94.72 94.72S564.224 604.16 512 604.16z" fill="#ffffff" p-id="1637"></path><path d="M107.56608 812.928l662.8864-662.8864 107.1616 107.1616-662.8864 662.8864z" fill="#ffffff" p-id="1638"></path><path d="M781.312 245.248c-11.776-11.776-31.232-11.776-43.008 0L250.88 733.184c-11.776 11.776-11.776 31.232 0 43.008s31.232 11.776 43.008 0l487.424-487.424c11.776-12.288 11.776-31.232 0-43.52z" fill="#ffffff" p-id="1639"></path></svg>