<?xml version="1.0" standalone="no"?><!DOCTYPE svg PUBLIC "-//W3C//DTD SVG 1.1//EN" "http://www.w3.org/Graphics/SVG/1.1/DTD/svg11.dtd"><svg t="1528603967184" class="icon" style="" viewBox="0 0 1704 1024" version="1.1" xmlns="http://www.w3.org/2000/svg" p-id="3818" xmlns:xlink="http://www.w3.org/1999/xlink" width="332.8125" height="200"><defs><style type="text/css"></style></defs><path d="M1648.830558 380.447927C1501.398629 238.365002 1203.525955 0 852.497551 0S203.596474 238.365002 56.164545 380.447927a182.200457 182.200457 0 0 0 0 263.104146C203.596474 785.634998 501.469148 1024 852.497551 1024s648.901077-238.365002 796.333007-380.447927a182.200457 182.200457 0 0 0 0-263.104146z m-69.537055 190.892589C1442.893895 702.056807 1167.085864 923.70617 852.497551 923.70617S262.101208 702.056807 125.7016 571.340516a81.906627 81.906627 0 0 1 0-118.681032C262.101208 320.940255 537.909239 100.29383 852.497551 100.29383s590.396343 220.646425 726.795952 352.365654a81.906627 81.906627 0 0 1 0 118.681032z" p-id="3819"></path><path d="M852.497551 253.743389a258.423768 258.423768 0 1 0 258.423768 258.089455 258.423768 258.423768 0 0 0-258.423768-258.089455z m0 414.882142a158.129938 158.129938 0 1 1 158.129938-158.129938A158.129938 158.129938 0 0 1 852.497551 668.625531z" p-id="3820"></path></svg>