<?xml version="1.0" standalone="no"?><!DOCTYPE svg PUBLIC "-//W3C//DTD SVG 1.1//EN" "http://www.w3.org/Graphics/SVG/1.1/DTD/svg11.dtd"><svg t="1540367881914" class="icon" style="" viewBox="0 0 1704 1024" version="1.1" xmlns="http://www.w3.org/2000/svg" p-id="569" xmlns:xlink="http://www.w3.org/1999/xlink" width="332.8125" height="200"><defs><style type="text/css"></style></defs><path d="M1648.83 380.448C1501.4 238.365 1203.527 0 852.499 0S203.596 238.365 56.165 380.448a182.2 182.2 0 0 0 0 263.104C203.596 785.635 501.469 1024 852.498 1024s648.9-238.365 796.333-380.448a182.2 182.2 0 0 0 0-263.104z m-69.536 190.893c-136.4 130.716-412.208 352.365-726.796 352.365S262.1 702.056 125.702 571.341a81.907 81.907 0 0 1 0-118.682c136.4-131.719 412.207-352.365 726.796-352.365s590.396 220.646 726.796 352.365a81.907 81.907 0 0 1 0 118.682z" p-id="570" fill="#ffffff"></path><path d="M852.498 253.743a258.424 258.424 0 1 0 258.423 258.09 258.424 258.424 0 0 0-258.423-258.09z m0 414.883a158.13 158.13 0 1 1 158.13-158.13 158.13 158.13 0 0 1-158.13 158.13z" p-id="571" fill="#ffffff"></path></svg>