<?xml version="1.0" standalone="no"?><!DOCTYPE svg PUBLIC "-//W3C//DTD SVG 1.1//EN" "http://www.w3.org/Graphics/SVG/1.1/DTD/svg11.dtd"><svg class="icon" width="200px" height="166.78px" viewBox="0 0 1228 1024" version="1.1" xmlns="http://www.w3.org/2000/svg"><path fill="#dbdbdb" d="M215.046827 307.2a122.88 122.88 0 1 0 122.88-122.88A122.88 122.88 0 0 0 215.046827 307.2zM1149.958827 1024H78.854827A80.213333 80.213333 0 0 1 0.006827 942.762667V81.237333A80.213333 80.213333 0 0 1 78.854827 0h1071.104A80.213333 80.213333 0 0 1 1228.806827 81.237333v861.525334A80.213333 80.213333 0 0 1 1149.958827 1024zM93.873493 926.037333h1041.408V97.962667H93.873493zM41.649493 839.68c-27.989333-25.258667-27.989333-36.181333 0-61.44l248.490667-224.938667a77.824 77.824 0 0 1 102.4 0l117.418667 106.154667 300.714666-273.066667a77.824 77.824 0 0 1 102.4 0l275.114667 248.832c27.989333 25.258667 27.989333 36.181333 0 61.44a77.824 77.824 0 0 1-102.4 0l-224.256-202.752-300.714667 273.066667a77.824 77.824 0 0 1-102.4 0L341.34016 660.821333 143.366827 839.68a75.434667 75.434667 0 0 1-50.858667 19.114667 75.776 75.776 0 0 1-50.858667-19.114667z" /></svg>