<?xml version="1.0" standalone="no"?><!DOCTYPE svg PUBLIC "-//W3C//DTD SVG 1.1//EN" "http://www.w3.org/Graphics/SVG/1.1/DTD/svg11.dtd"><svg t="1533896362558" class="icon" style="" viewBox="0 0 1024 1024" version="1.1" xmlns="http://www.w3.org/2000/svg" p-id="1448" xmlns:xlink="http://www.w3.org/1999/xlink" width="200" height="200"><defs><style type="text/css"></style></defs><path d="M299.008 381.44l175.616-182.784v513.536c0 20.992 14.336 35.328 35.328 35.328 20.992 0 35.328-13.824 35.328-35.328V198.656l182.784 182.784c13.824 14.336 35.328 14.336 49.152 0 13.824-13.824 13.824-35.328 0-49.152l-253.44-232.448-6.144-6.144c-6.656-4.608-7.68-5.12-12.8-6.144-6.656 0-11.776 1.024-18.432 8.192l-4.608 3.584-231.936 232.96c-13.824 14.336-13.824 35.328 0 49.152 13.824 14.336 35.328 14.336 49.152 0z" p-id="1449"></path><path d="M955.904 590.848c-3.072-16.384-16.896-29.184-33.792-29.184-17.408 0-30.72 12.8-33.792 29.184h-0.512v3.584c0 1.024-0.512 1.536-0.512 2.56s0.512 1.536 0.512 2.56v276.992c0 35.328-28.16 56.32-56.32 56.32H238.592c-70.144 0-98.304-20.992-98.304-56.32v-276.992c0-1.024 0.512-1.536 0.512-2.56s-0.512-1.536-0.512-2.56v-3.584h-0.512c-3.072-16.384-16.896-29.184-33.792-29.184s-30.72 12.8-33.792 29.184h-2.048v341.504c0 41.984 28.16 70.144 112.64 70.144h705.024c41.984 0 70.144-28.16 70.144-70.144v-341.504h-2.048z" p-id="1450"></path></svg>