<?xml version="1.0" standalone="no"?><!DOCTYPE svg PUBLIC "-//W3C//DTD SVG 1.1//EN" "http://www.w3.org/Graphics/SVG/1.1/DTD/svg11.dtd"><svg t="1528166026469" class="icon" style="" viewBox="0 0 1024 1024" version="1.1" xmlns="http://www.w3.org/2000/svg" p-id="6372" xmlns:xlink="http://www.w3.org/1999/xlink" width="200" height="200"><defs><style type="text/css"></style></defs><path d="M510.507508 703.313234c-171.914418 0-311.770699-139.856281-311.770699-311.770699s139.856281-311.770699 311.770699-311.770699c171.914418 0 311.771723 139.856281 311.771723 311.770699S682.421926 703.313234 510.507508 703.313234zM510.507508 131.733277c-143.255705 0-259.808234 116.553553-259.808234 259.810281 0 143.256728 116.552529 259.808234 259.808234 259.808234 143.257751 0 259.810281-116.550483 259.810281-259.808234C770.316765 248.28683 653.765259 131.733277 510.507508 131.733277z" p-id="6373"></path><path d="M280.118304 940.408163c-1.484817 0-2.981914-0.125867-4.477988-0.39295-9.927093-1.726318-17.950837-9.046027-20.595061-18.763342L221.907531 799.428292 96.09408 809.806663c-10.033517 0.925069-19.656689-4.224208-24.673959-12.964266-5.01113-8.742105-4.52199-19.589151 1.261737-27.846208l161.505347-230.352365c8.227382-11.741415 24.439622-14.595416 36.187177-6.361895 11.752672 8.238638 14.595416 24.439622 6.361895 36.18513L147.035286 753.46854l92.13235-7.600095c12.412704-1.12973 23.912619 6.976902 27.204595 19.068288l24.26873 89.207741 129.702014-184.999434c8.232498-11.741415 24.445762-14.615882 36.186154-6.362918 11.753695 8.239662 14.595416 24.440645 6.362918 36.186154L301.385677 929.346223C296.469714 936.349731 288.489972 940.408163 280.118304 940.408163z" p-id="6374"></path><path d="M740.429061 940.408163c-8.373715 0-16.35141-4.059456-21.268396-11.062963l-161.51865-230.377948c-8.232498-11.746532-5.390777-27.947516 6.362918-36.186154 11.741415-8.233522 27.952632-5.378497 36.187177 6.362918l129.71327 185.011714 24.269753-89.220021c3.284813-12.090363 14.68956-20.196994 27.203572-19.068288l92.120071 7.600095L743.796762 568.467059c-8.233522-11.746532-5.3918-27.947516 6.362918-36.18513 11.746532-8.233522 27.958772-5.379521 36.186154 6.361895l161.505347 230.352365c5.783727 8.257058 6.27389 19.104103 1.261737 27.846208-5.018294 8.740058-14.628162 13.889335-24.673959 12.964266l-125.802194-10.378371-33.134655 121.824603c-2.645247 9.717316-10.671037 17.037025-20.596084 18.763342C743.409952 940.282297 741.912855 940.408163 740.429061 940.408163z" p-id="6375"></path></svg>