<?xml version="1.0" standalone="no"?><!DOCTYPE svg PUBLIC "-//W3C//DTD SVG 1.1//EN" "http://www.w3.org/Graphics/SVG/1.1/DTD/svg11.dtd"><svg t="1534823016254" class="icon" style="" viewBox="0 0 1024 1024" version="1.1" xmlns="http://www.w3.org/2000/svg" p-id="1048" xmlns:xlink="http://www.w3.org/1999/xlink" width="200" height="200"><defs><style type="text/css"></style></defs><path d="M829.952 854.528l2.048-480.768c0-35.84-13.824-70.656-39.424-96.256l-199.68-201.728c-53.248-53.248-139.264-53.76-193.024-1.024l-201.216 199.68c-25.6 25.6-39.936 59.904-40.448 96.256l-2.048 481.28c0 75.264 60.416 136.192 135.68 136.704l401.408 1.536c75.264 0 136.192-60.416 136.704-135.68z m-136.704 71.68l-401.408-1.536c-39.936 0-71.68-32.768-71.68-72.192l2.048-481.28c0-18.944 7.68-37.376 21.504-51.2l201.216-199.68c28.16-28.16 73.728-27.648 101.888 0.512l199.68 201.728c13.312 13.312 20.992 31.744 20.992 51.2l-2.048 480.768c0 39.424-32.256 71.68-72.192 71.68z" p-id="1049"></path><path d="M492.544 356.352c-70.656 0.512-127.488 58.368-126.976 129.024s58.368 127.488 129.024 126.976 127.488-58.368 126.976-129.024c-1.024-70.656-58.368-127.488-129.024-126.976z m46.08 173.056c-25.088 25.088-65.536 25.6-90.624 0.512s-25.6-65.536-0.512-90.624c25.088-25.088 65.536-25.6 90.624-0.512 12.288 11.776 18.944 28.16 18.944 45.056 0.512 16.896-6.144 33.28-18.432 45.568z" p-id="1050"></path></svg>