<?xml version="1.0" standalone="no"?><!DOCTYPE svg PUBLIC "-//W3C//DTD SVG 1.1//EN" "http://www.w3.org/Graphics/SVG/1.1/DTD/svg11.dtd"><svg t="1534994565180" class="icon" style="" viewBox="0 0 1024 1024" version="1.1" xmlns="http://www.w3.org/2000/svg" p-id="1666" xmlns:xlink="http://www.w3.org/1999/xlink" width="200" height="200"><defs><style type="text/css"></style></defs><path d="M981.300374 951.646692L924.129042 253.857782A69.544233 69.544233 0 0 0 853.304854 191.99328h-106.662933c-17.066069-127.99552-115.409294-191.99328-234.658454-191.99328S294.817735 63.99776 277.325014 191.99328H170.66208a69.544233 69.544233 0 0 0-70.824188 61.864502L42.66656 951.646692A68.904255 68.904255 0 0 0 113.704074 1023.964161h796.558787A68.904255 68.904255 0 0 0 981.300374 951.646692zM511.983467 63.99776c81.490481 0 149.328107 31.99888 166.180851 127.99552H345.802617C362.65536 95.99664 430.492986 63.99776 511.983467 63.99776z m279.24356 484.889696l-191.99328 167.887457a22.825868 22.825868 0 0 1-29.652296 0l-141.861701-123.729003a13.012878 13.012878 0 0 0-16.852744 0L235.939795 746.640534a22.825868 22.825868 0 0 1-30.718924 0l-2.986563-2.986562a19.839306 19.839306 0 0 1 0-29.225644l197.113102-177.487121a22.825868 22.825868 0 0 1 29.865621 0l147.194848 127.99552a14.079507 14.079507 0 0 0 18.55935 0l159.781075-149.328107a22.825868 22.825868 0 0 1 30.932251 0l5.333146 5.119821a19.839306 19.839306 0 0 1 0.213326 28.159015z" fill="" p-id="1667"></path></svg>