<?xml version="1.0" encoding="utf-8"?>
<!-- Generator: Adobe Illustrator 22.0.0, SVG Export Plug-In . SVG Version: 6.00 Build 0)  -->
<svg version="1.1" id="图层_1" xmlns="http://www.w3.org/2000/svg" xmlns:xlink="http://www.w3.org/1999/xlink" x="0px" y="0px"
	 viewBox="0 0 200 200" style="enable-background:new 0 0 200 200;" xml:space="preserve">
<style type="text/css">
	.st0{fill:#AAAAAA;}
</style>
<path class="st0" d="M90.3,167.4c0-5.6,4.4-10.2,9.7-10.2s9.7,4.6,9.7,10.2c0,5.7-4.4,10.2-9.7,10.2C94.6,177.6,90.3,173,90.3,167.4
	z M59.8,22.4h80.3c4.7,0,8.6,4,8.6,9v100.5c0,5-3.9,9-8.6,9H59.8c-4.7,0-8.6-4-8.6-9V31.4C51.2,26.4,55.1,22.4,59.8,22.4z
	 M31.8,181.7c0,9,7,16.3,15.6,16.3h105.3c8.6,0,15.5-7.3,15.5-16.3l0-163.4c0-9-7-16.3-15.5-16.3L47.4,2c-8.6,0-15.6,7.3-15.6,16.3
	L31.8,181.7L31.8,181.7z"/>
</svg>
