<?xml version="1.0" encoding="utf-8"?>
<!-- Generator: Adobe Illustrator 22.0.0, SVG Export Plug-In . SVG Version: 6.00 Build 0)  -->
<svg version="1.1" id="图层_1" xmlns="http://www.w3.org/2000/svg" xmlns:xlink="http://www.w3.org/1999/xlink" x="0px" y="0px"
	 viewBox="0 0 200 200" style="enable-background:new 0 0 200 200;" xml:space="preserve">
<style type="text/css">
	.st0{fill:#AAAAAA;}
</style>
<path class="st0" d="M162.7,24.9H40c-15.1,0-27.3,13.4-27.3,30V145c0,16.6,12.2,30,27.3,30h122.7c15.1,0,27.3-13.4,27.3-30V54.9
	C189.9,38.3,177.7,24.9,162.7,24.9z M55.5,126.8H53c-1.5,0-2.7-1.2-2.7-2.7V79.9c0-1.5-1.2-2.7-2.7-2.7c-0.6,0-1.1,0.2-1.6,0.5
	c-1,0.7-2.1,1.4-3.1,2.1c-1.4,0.9-2.8,1.7-4.3,2.5c-1.3,0.7-2.9,0.1-3.6-1.2c-0.2-0.4-0.3-0.8-0.3-1.2v-2.2c0-1,0.6-1.9,1.4-2.4
	c3.6-1.9,7-4.3,10-7.2c2.8-2.6,4.8-5.2,6.2-7.7c0.5-0.8,1.4-1.3,2.3-1.3h0.7c1.5,0,2.7,1.2,2.7,2.7v62.2
	C58.1,125.7,56.9,126.8,55.5,126.8z M115.8,126.8H79.4c-1.5,0-2.7-1.2-2.7-2.7c0-0.2,0-0.3,0-0.5c0.2-0.9,0.4-1.8,0.7-2.6
	c1.1-3,2.8-6,5.1-9c2.3-2.9,5.7-6.3,10.2-10.2c6.9-6,11.6-10.8,14-14.3c2.4-3.5,3.6-6.8,3.6-9.9c0.1-3.1-1.1-6.1-3.3-8.3
	c-2.3-2.3-5.4-3.5-8.6-3.4c-3.7,0-6.8,1.2-9,3.6c-1.8,1.9-2.8,4.3-3.2,7.3c-0.2,1.4-1.5,2.4-2.9,2.3L80.7,79
	c-1.5-0.2-2.5-1.5-2.4-2.9c0-0.1,0-0.1,0-0.2c0.9-5,2.8-8.9,5.8-11.7c3.6-3.3,8.4-5,14.4-5c6.1,0,10.9,1.8,14.5,5.4
	c3.6,3.6,5.3,8,5.3,13.3c0,2.7-0.5,5.4-1.6,7.9c-1,2.6-2.8,5.3-5.2,8.2c-2.4,2.9-6.4,6.8-12,11.8c-4.7,4.2-7.7,7-9,8.5l0,0
	c-1.5,1.7-0.3,4.4,2,4.4h23.2c1.5,0,2.7,1.2,2.7,2.7v2.6C118.5,125.6,117.3,126.8,115.8,126.8C115.8,126.8,115.8,126.8,115.8,126.8
	L115.8,126.8z M161.8,121.9c-4,4.1-9.1,6.1-15.3,6.1c-5.6,0-10.2-1.8-13.9-5.3c-3.1-2.9-5-6.6-5.9-10.9c-0.3-1.4,0.7-2.8,2.1-3.1
	c0,0,0.1,0,0.1,0l2.7-0.4c1.3-0.2,2.6,0.6,2.9,1.9c0.9,3.5,2.3,6.1,4.1,7.8c2.2,2.1,4.8,3.1,7.9,3.1c3.7,0,6.8-1.3,9.3-4
	s3.8-6,3.8-10c0.1-3.5-1.1-6.8-3.5-9.4c-2.3-2.5-5.6-3.8-8.9-3.7c-0.7,0-1.4,0.1-2,0.2c-1.5,0.2-2.8-0.8-3-2.3c0-0.2,0-0.5,0-0.7
	l0.1-1.1c0.2-1.3,1.2-2.3,2.5-2.3c2.9-0.1,5.6-1.1,8-2.7c2.7-1.8,4-4.7,4-8.5c0.1-2.8-0.9-5.5-2.9-7.6c-2-2-4.7-3.1-7.5-3
	c-2.8-0.1-5.6,1-7.6,3c-1.6,1.6-2.7,3.8-3.4,6.6c-0.3,1.4-1.7,2.2-3.1,2l-2.5-0.5c-1.4-0.3-2.4-1.7-2.1-3.1c0-0.1,0-0.1,0-0.2
	c1.1-4.2,3.1-7.6,5.9-10.1c3.4-3,7.6-4.6,12.6-4.6c3.3,0,6.6,0.8,9.6,2.4c2.9,1.6,5.1,3.7,6.7,6.5c1.5,2.6,2.3,5.6,2.3,8.7
	c0,2.8-0.7,5.5-2.2,7.9c-0.7,1.2-1.6,2.2-2.6,3.1c-1.1,1-1.2,2.7-0.2,3.8c0.2,0.2,0.4,0.4,0.6,0.5c1.7,1,3.3,2.4,4.4,4
	c2.1,2.9,3.1,6.5,3.1,10.9C168,112.6,165.8,118,161.8,121.9L161.8,121.9z"/>
</svg>
