<?xml version="1.0" encoding="utf-8"?>
<!-- Generator: Adobe Illustrator 22.0.0, SVG Export Plug-In . SVG Version: 6.00 Build 0)  -->
<svg version="1.1" id="图层_1" xmlns="http://www.w3.org/2000/svg" xmlns:xlink="http://www.w3.org/1999/xlink" x="0px" y="0px"
	 viewBox="0 0 200 200" style="enable-background:new 0 0 200 200;" xml:space="preserve">
<style type="text/css">
	.st0{fill:#AAAAAA;}
</style>
<path class="st0" d="M150.2,82.6H72.7c1.3-11.2-8.3-56.9,27.4-58c34-1.3,28.7,41.7,28.7,41.7l16.6,0.1c0,0,4.8-57.5-45.3-57.8
	c-54.7,2.8-41.9,65.1-43.5,74h1.4c-10.9,0-19.8,8.9-19.8,19.8v65.9c0,10.9,8.9,19.8,19.8,19.8h92.3c10.9,0,19.8-8.9,19.8-19.8v-65.9
	C169.9,91.4,161.1,82.6,150.2,82.6L150.2,82.6z M110.6,140v15c0,3.6-3,6.6-6.6,6.6c-3.6,0-6.6-3-6.6-6.6v-15
	c-3.9-2.3-6.6-6.5-6.6-11.4c0-7.3,5.9-13.2,13.2-13.2c7.3,0,13.2,5.9,13.2,13.2C117.2,133.6,114.6,137.8,110.6,140z"/>
</svg>
