<?xml version="1.0" standalone="no"?><!DOCTYPE svg PUBLIC "-//W3C//DTD SVG 1.1//EN" "http://www.w3.org/Graphics/SVG/1.1/DTD/svg11.dtd"><svg t="1531221649700" class="icon" style="" viewBox="0 0 1024 1024" version="1.1" xmlns="http://www.w3.org/2000/svg" p-id="1664" xmlns:xlink="http://www.w3.org/1999/xlink" width="200" height="200"><defs><style type="text/css"></style></defs><path d="M983.719113 312.684944a512.11075 512.11075 0 0 0-943.370077 0 512.524577 512.524577 0 0 0 272.453265 670.96854 512.472849 512.472849 0 0 0 670.916812-272.453265 514.0247 514.0247 0 0 0 0-398.308361z m-471.710903 637.810662A438.553024 438.553024 0 1 1 950.561235 512.201223a438.966851 438.966851 0 0 1-438.553025 438.553025z" fill="" p-id="1665"></path><path d="M644.950092 275.750896a44.43466 44.43466 0 0 0-44.279475 44.279475v382.013928a44.331203 44.331203 0 0 0 88.610678 0V320.030371a44.43466 44.43466 0 0 0-44.331203-44.279475z m-265.832035 0a44.43466 44.43466 0 0 0-44.331203 44.279475v382.013928a44.331203 44.331203 0 0 0 88.610678 0V320.030371a44.43466 44.43466 0 0 0-44.279475-44.279475z" fill="" p-id="1666"></path></svg>