<?xml version="1.0" standalone="no"?><!DOCTYPE svg PUBLIC "-//W3C//DTD SVG 1.1//EN" "http://www.w3.org/Graphics/SVG/1.1/DTD/svg11.dtd"><svg t="1536807328882" class="icon" style="" viewBox="0 0 1024 1024" version="1.1" xmlns="http://www.w3.org/2000/svg" p-id="3794" xmlns:xlink="http://www.w3.org/1999/xlink" width="200" height="200"><defs><style type="text/css"></style></defs><path d="M639.158617 544.806338c67.681621-43.006321 112.709451-118.445574 112.709451-204.571333 0-133.9134-108.544803-242.458202-242.460635-242.458203-133.909751 0-242.458202 108.544803-242.458202 242.458203 0 83.403656 42.148822 156.971006 106.278815 200.597645C248.869985 587.779819 161.53278 704.994486 161.53278 835.690743c0 0 30.410206 37.012341 58.387789 0 0 0 25.22264-259.083956 289.486864-259.083956 146.491271 0 259.88064 116.791391 287.635639 259.083956 0 0 23.732659 36.404186 58.120201 0-0.001216 0-14.560458-215.197026-216.004656-290.884405z m-130.861676-19.249336c-101.765086 0-184.261374-82.497504-184.261373-184.262591s82.496288-184.261374 184.261373-184.261373 184.261374 82.496288 184.261374 184.261373-82.496288 184.26259-184.261374 184.262591z" p-id="3795" fill="#ffffff"></path></svg>