<?xml version="1.0" standalone="no"?><!DOCTYPE svg PUBLIC "-//W3C//DTD SVG 1.1//EN" "http://www.w3.org/Graphics/SVG/1.1/DTD/svg11.dtd"><svg t="1533897286521" class="icon" style="" viewBox="0 0 1024 1024" version="1.1" xmlns="http://www.w3.org/2000/svg" p-id="3625" xmlns:xlink="http://www.w3.org/1999/xlink" width="200" height="200"><defs><style type="text/css"></style></defs><path d="M100.77333313 926.55999969h822.45333375v-826.66666594H100.77333313v826.66666594zM950.24 32c11.06666625 0 21.67999969 4.34666625 29.52 12.10666688 7.84000031 7.78666687 12.24 18.29333344 12.24 29.28v877.22666625c0 10.98666656-4.39999969 21.49333312-12.24 29.28a41.94666656 41.94666656 0 0 1-29.52 12.10666687H73.76c-11.06666625 0-21.67999969-4.34666625-29.52-12.10666687A41.22666656 41.22666656 0 0 1 32 950.61333312V73.38666688C32 62.40000031 36.39999969 51.89333375 44.24 44.10666687A41.94666656 41.94666656 0 0 1 73.76 32h876.48z m-209.59999969 221.86666688a42.66666656 42.66666656 0 1 1 0 85.33333312 42.66666656 42.66666656 0 0 1 0-85.33333312m-154.77333375 0a42.66666656 42.66666656 0 1 1 0.02666719 85.33333312 42.66666656 42.66666656 0 0 1 0-85.33333312m-151.28000062 0a42.66666656 42.66666656 0 1 1 0.02666718 85.33333312 42.66666656 42.66666656 0 0 1 0-85.33333312m-142.02666656 0a42.66666656 42.66666656 0 1 1 0.02666625 85.33333312 42.66666656 42.66666656 0 0 1 0-85.33333312m0 225.78666656h448.00000031c23.54666625 0 42.66666656 14.32000031 42.66666656 31.99999969 0 17.68000031-19.12000031 31.99999969-42.66666656 32.00000062h-448.00000031c-23.59999969 0-42.66666656-14.32000031-42.66666656-32.00000062 0-17.68000031 19.06666687-31.99999969 42.66666656-31.99999969m0 215.81333344h448.00000031c23.54666625 0 42.66666656 14.32000031 42.66666656 31.99999968 0 17.65333312-19.12000031 31.99999969-42.66666656 31.99999969h-448.00000031c-23.59999969 0-42.66666656-14.34666656-42.66666656-31.99999969 0-17.68000031 19.06666687-31.99999969 42.66666656-31.99999969" fill="#999999" p-id="3626"></path></svg>