<?xml version="1.0" standalone="no"?><!DOCTYPE svg PUBLIC "-//W3C//DTD SVG 1.1//EN" "http://www.w3.org/Graphics/SVG/1.1/DTD/svg11.dtd"><svg t="1533896409575" class="icon" style="" viewBox="0 0 1024 1024" version="1.1" xmlns="http://www.w3.org/2000/svg" p-id="2322" xmlns:xlink="http://www.w3.org/1999/xlink" width="200" height="200"><defs><style type="text/css"></style></defs><path d="M964.998211 784.121678l-73.856102 0c-15.281031 0-29.446659-10.440793-31.901571-25.523303-3.128247-19.218714 11.625782-35.830043 30.257118-35.830043l56.128345 0c6.117324 0 10.996448-5.467525 10.050913-11.512195-16.273638-103.96484-92.322685-190.502775-194.60214-219.317031-13.354146-3.762697-25.453718-12.108782-31.289634-24.695448-9.826809-21.195741-2.143826-44.929282 16.208147-56.901964 10.93198-7.131421 20.906146-15.824407 29.077246-26.003234 65.380056-81.44494 6.510274-179.63424-73.662697-189.045587-15.912411-1.88186-31.553647-0.617054-46.546106 3.729951-14.335497 4.15667-30.446429-1.490957-37.259602-14.770402-9.039887-17.621333 0.302899-38.179554 18.339694-43.617403 23.457248-7.077186 47.872311-9.211802 72.617901-6.275937 82.188884 9.646708 147.467633 76.54228 155.196665 159.060669 5.362124 57.174164-16.394389 111.668289-57.893548 148.778488 118.41597 45.146223 202.604394 155.301042 213.270315 283.251156 1.25048 15.008832-3.901867 29.987988-14.132882 41.102117C994.72321 777.726014 980.141096 784.121678 964.998211 784.121678z" p-id="2323"></path><path d="M778.060635 914.49805 63.37233 914.49805c-15.435551 0-30.340005-6.485715-40.885176-17.795295-10.538007-11.294231-15.96767-26.587542-14.896268-41.955554 11.56336-166.580946 122.392538-309.25439 278.900058-362.744651-52.05968-40.832987-82.429361-102.620215-82.429361-169.950693 0.007163-122.288161 102.080933-221.110887 225.192855-216.490659 112.364137 4.336772 205.705012 99.363032 208.064756 211.839733 1.437745 68.154239-29.620621 132.833331-82.429361 174.571944 156.544359 53.489238 267.388886 196.179055 278.952246 362.774327 1.071402 15.368012-4.359284 30.662347-14.896268 41.955554C808.40064 908.012336 793.497209 914.49805 778.060635 914.49805zM87.328951 853.144704l671.443385 0c7.148817 0 12.886495-6.258541 12.002358-13.352099-17.472953-140.18067-117.732401-257.388115-254.877945-295.703769-14.075577-3.932566-26.822902-12.654204-33.30657-25.7515-11.747555-23.730471-2.916423-50.661843 18.157545-63.352887 19.097964-11.500938 36.20048-26.369577 48.238654-45.133943 72.529897-113.066125-12.045337-238.731196-122.098849-242.97894-111.665219-4.628414-197.589171 108.877733-146.236596 224.840838 12.128225 27.387767 35.065634 47.617507 60.44772 63.522756 21.021779 13.173021 29.565363 40.488133 17.133216 64.275909-6.497994 12.434194-18.736736 20.712741-32.253588 24.470321C190.101639 581.747527 90.352821 696.894034 71.263044 835.175447 69.945025 844.722894 77.691453 853.144704 87.328951 853.144704z" p-id="2324"></path></svg>