<?xml version="1.0" standalone="no"?><!DOCTYPE svg PUBLIC "-//W3C//DTD SVG 1.1//EN" "http://www.w3.org/Graphics/SVG/1.1/DTD/svg11.dtd"><svg t="1531221763336" class="icon" style="" viewBox="0 0 1024 1024" version="1.1" xmlns="http://www.w3.org/2000/svg" p-id="1774" xmlns:xlink="http://www.w3.org/1999/xlink" width="200" height="200"><defs><style type="text/css"></style></defs><path d="M512 0a512 512 0 1 0 512 512A512 512 0 0 0 512 0z m0 954.1632A442.1632 442.1632 0 1 1 954.1632 512 442.1632 442.1632 0 0 1 512 954.1632z" fill="" p-id="1775"></path><path d="M750.5408 481.792L401.4592 280.2176a34.9184 34.9184 0 0 0-52.3776 30.2592v403.0464a34.9696 34.9696 0 0 0 52.3776 30.2592l349.0816-201.5744a34.8672 34.8672 0 0 0 0-60.416z m-331.6224 171.264v-282.112L663.296 512z" fill="" p-id="1776"></path></svg>