<?xml version="1.0" standalone="no"?><!DOCTYPE svg PUBLIC "-//W3C//DTD SVG 1.1//EN" "http://www.w3.org/Graphics/SVG/1.1/DTD/svg11.dtd"><svg t="1528165364834" class="icon" style="" viewBox="0 0 1024 1024" version="1.1" xmlns="http://www.w3.org/2000/svg" p-id="6118" xmlns:xlink="http://www.w3.org/1999/xlink" width="200" height="200"><defs><style type="text/css"></style></defs><path d="M829.913 562.425c17.377-44.993 26.105-92.166 26.105-141.444s-8.726-96.45-26.105-141.361-42.393-84.866-74.962-119.701c-32.651-34.921-69.924-61.697-111.98-80.25-41.971-18.637-86.039-27.955-132.126-27.955-46.083 0-90.156 9.318-132.212 27.955-41.971 18.55-79.243 45.328-111.894 80.25-32.655 34.837-57.586 74.794-74.96 119.701s-26.106 92.085-26.106 141.444c0 49.275 8.731 96.45 26.106 141.36 17.377 44.91 42.393 84.866 74.96 119.701 27.701 29.634 59.095 53.642 94.267 71.854-12.339 3.693-24.007 7.639-35.088 11.922-57.083 21.658-109.462 52.716-157.143 93.26-27.197 23.172-51.958 48.69-74.371 76.476 14.691 12.173 29.632 23.671 44.994 34.414 19.305-23.588 40.544-45.161 63.629-64.803 42.727-36.349 89.905-64.3 141.361-83.943 53.302-20.229 108.286-30.305 165.117-30.305 56.663 0 111.646 10.073 164.948 30.305 51.374 19.558 98.467 47.426 141.191 83.692 23.757 20.148 45.499 42.307 65.227 66.566 15.361-10.661 30.385-22.078 45.074-34.25-22.832-28.541-48.182-54.646-76.137-78.404-47.68-40.461-99.975-71.519-156.973-93.094-11.165-4.281-22.247-8.059-33.157-11.331 35.421-18.131 67.152-42.223 95.277-72.358 32.566-34.833 57.582-74.791 74.959-119.701v0zM801.034 420.981c0 42.054-7.641 82.263-22.834 120.794-14.689 37.104-35.506 70.010-62.284 98.717-26.778 28.625-57.586 50.87-92.255 66.567-35.931 16.285-73.535 24.427-112.82 24.427s-76.892-8.142-112.818-24.427c-34.668-15.698-65.475-37.942-92.255-66.567-26.779-28.707-47.597-61.614-62.286-98.717-15.194-38.527-22.832-78.738-22.832-120.794s7.639-82.263 22.832-120.709c14.691-37.103 35.509-70.010 62.286-98.718 26.778-28.624 57.583-50.87 92.255-66.566 35.929-16.285 73.535-24.427 112.818-24.427s76.891 8.142 112.82 24.427c34.667 15.697 65.475 37.942 92.255 66.566 26.778 28.707 47.595 61.616 62.284 98.718 15.197 38.447 22.834 78.655 22.834 120.709v0z" p-id="6119"></path><path d="M520.751 249.569c42.053 4.784 63.878 28.624 65.392 71.436-2.939 18.89-18.72 43.567-47.345 73.869-37.689 38.11-56.578 72.275-56.578 102.412v30.892l0.754 2.854c0.839 2.35 1.931 4.449 3.36 6.382 4.449 6.128 10.995 9.234 19.643 9.234 8.643 0 15.19-3.107 19.644-9.234 1.428-1.93 2.515-4.030 3.275-6.382l0.753-2.854v-21.491c0-25.266 18.046-55.486 54.227-90.49 37.69-34.752 56.58-66.482 56.58-95.191-3.107-79.327-44.577-120.626-124.32-123.901-91.918-1.509-137.834 47.765-137.834 147.741l0.754 3.189c0.754 2.602 1.846 4.953 3.275 7.134 4.619 6.8 11.753 10.241 21.321 10.241 9.653 0 16.621-3.441 20.901-10.241 2.098-3.441 3.275-6.881 3.526-10.324-1.515-66.566 29.376-98.383 92.671-95.278v0z" p-id="6120"></path><path d="M495.733 592.142c-5.792 5.791-8.646 12.841-8.646 21.070v7.889c0 8.225 2.939 15.279 8.731 21.070s12.842 8.731 21.067 8.731c8.313 0 15.361-2.939 21.155-8.731s8.646-12.842 8.646-21.070v-7.889c0-8.226-2.939-15.279-8.734-21.070-5.79-5.791-12.841-8.731-21.070-8.731-8.308-0.001-15.361 2.937-21.151 8.731v0z" p-id="6121"></path></svg>