<?xml version="1.0" standalone="no"?><!DOCTYPE svg PUBLIC "-//W3C//DTD SVG 1.1//EN" "http://www.w3.org/Graphics/SVG/1.1/DTD/svg11.dtd"><svg t="1528099875564" class="icon" style="" viewBox="0 0 1024 1024" version="1.1" xmlns="http://www.w3.org/2000/svg" p-id="4737" xmlns:xlink="http://www.w3.org/1999/xlink" width="200" height="200"><defs><style type="text/css"></style></defs><path d="M271.026 80.99h-165.4c-22.798 0-41.343 18.517-41.343 41.327V287.76c0 22.77 18.546 41.327 41.343 41.327h165.4c22.809 0 41.344-18.558 41.344-41.327V122.317c-0.001-22.81-18.535-41.327-41.344-41.327z m-6.369 194.498c0 3.213-2.647 5.875-5.903 5.875H117.898c-3.256 0-5.909-2.664-5.909-5.875v-140.9c0-3.253 2.653-5.874 5.909-5.874h140.856c3.256 0 5.903 2.622 5.903 5.873v140.901zM271.026 387.95h-165.4c-22.798 0-41.343 18.517-41.343 41.327V594.72c0 22.77 18.546 41.33 41.343 41.33h165.4c22.809 0 41.344-18.56 41.344-41.33V429.277c-0.001-22.81-18.535-41.326-41.344-41.326z m-6.369 194.498c0 3.214-2.647 5.877-5.903 5.877H117.898c-3.256 0-5.909-2.664-5.909-5.877V441.55c0-3.253 2.653-5.874 5.909-5.874h140.856c3.256 0 5.903 2.622 5.903 5.874v140.9zM271.026 694.912h-165.4c-22.798 0-41.343 18.517-41.343 41.327v165.443c0 22.77 18.546 41.328 41.343 41.328h165.4c22.809 0 41.344-18.558 41.344-41.328V736.24c-0.001-22.81-18.535-41.327-41.344-41.327z m-6.369 194.499c0 3.212-2.647 5.876-5.903 5.876H117.898c-3.256 0-5.909-2.665-5.909-5.876V748.51c0-3.252 2.653-5.875 5.909-5.875h140.856c3.256 0 5.903 2.623 5.903 5.875v140.9zM918.373 80.99H412.445c-22.798 0-41.344 18.517-41.344 41.327V287.76c0 22.77 18.547 41.327 41.344 41.327h505.928c22.808 0 41.343-18.558 41.343-41.327V122.317c0-22.81-18.535-41.327-41.343-41.327z m-6.368 194.498c0 3.213-2.649 5.875-5.905 5.875H424.717c-3.257 0-5.91-2.664-5.91-5.875v-140.9c0-3.253 2.653-5.874 5.91-5.874H906.1c3.256 0 5.905 2.622 5.905 5.873v140.901zM918.373 387.95H412.445c-22.798 0-41.344 18.517-41.344 41.327V594.72c0 22.77 18.547 41.33 41.344 41.33h505.928c22.808 0 41.343-18.56 41.343-41.33V429.277c0-22.81-18.535-41.326-41.343-41.326z m-6.368 194.498c0 3.214-2.649 5.877-5.905 5.877H424.717c-3.257 0-5.91-2.664-5.91-5.877V441.55c0-3.253 2.653-5.874 5.91-5.874H906.1c3.256 0 5.905 2.622 5.905 5.874v140.9zM918.373 694.912H412.445c-22.798 0-41.344 18.517-41.344 41.327v165.443c0 22.77 18.547 41.328 41.344 41.328h505.928c22.808 0 41.343-18.558 41.343-41.328V736.24c0-22.81-18.535-41.327-41.343-41.327z m-6.368 194.499c0 3.212-2.649 5.876-5.905 5.876H424.717c-3.257 0-5.91-2.665-5.91-5.876V748.51c0-3.252 2.653-5.875 5.91-5.875H906.1c3.256 0 5.905 2.623 5.905 5.875v140.9z" p-id="4738"></path></svg>