<?xml version="1.0" standalone="no"?><!DOCTYPE svg PUBLIC "-//W3C//DTD SVG 1.1//EN" "http://www.w3.org/Graphics/SVG/1.1/DTD/svg11.dtd"><svg t="1528166387074" class="icon" style="" viewBox="0 0 1024 1024" version="1.1" xmlns="http://www.w3.org/2000/svg" p-id="6826" xmlns:xlink="http://www.w3.org/1999/xlink" width="200" height="200"><defs><style type="text/css"></style></defs><path d="M512.333 955.107c-173.555 0-314.753-141.198-314.753-314.753 0-66.204 20.487-129.626 59.2-183.438l5.513-7.623-94.19-124.237V65.108h688.458v259.948l-94.19 124.237 5.513 7.623c38.714 53.813 59.2 117.234 59.2 183.439 0.002 173.555-141.196 314.752-314.751 314.752z m0-595.112c-154.583 0-280.36 125.777-280.36 280.36S357.751 920.69 512.333 920.69s280.36-125.753 280.36-280.335-125.777-280.36-280.36-280.36z m0-34.419c80.979 0 158.034 30.916 216.937 87.038l10.305 9.809 82.568-108.941V99.525H644.218v167.049c0 9.486-7.723 17.209-17.209 17.209s-17.184-7.723-17.184-17.209V99.525H414.84v167.049c0 9.486-7.698 17.209-17.184 17.209-9.487 0-17.209-7.723-17.209-17.209V99.525H202.522v213.958l82.568 108.941 10.305-9.809c58.903-56.122 135.959-87.039 216.938-87.039zM407.489 829.28c-5.86 0-11.497-1.838-16.266-5.314-8.542-6.183-12.715-16.513-10.902-26.969l17.532-102.435-74.448-72.56c-7.425-7.276-10.157-18.376-6.953-28.284 3.278-10.082 11.796-17.259 22.275-18.774l102.856-14.949 46.015-93.221c4.619-9.337 14.328-15.372 24.733-15.372 10.405 0 20.114 6.034 24.733 15.347l45.99 93.246 102.881 14.949c10.479 1.515 19.022 8.691 22.275 18.774 3.203 9.933 0.471 21.033-6.978 28.284l-74.448 72.56 17.556 102.459c1.813 10.454-2.409 20.785-10.976 26.993a27.456 27.456 0 0 1-16.191 5.24 27.946 27.946 0 0 1-12.987-3.228l-91.856-48.3-92.005 48.374c-3.846 2.064-8.366 3.18-12.836 3.18z m200.623-40.079l-18.277-106.656 77.478-75.565-107.103-15.546-47.877-97.046-47.902 97.046-107.103 15.546 77.503 75.565-18.276 106.656 95.779-50.385 95.778 50.385z" fill="#ffffff" p-id="6827"></path></svg>