<?xml version="1.0" standalone="no"?><!DOCTYPE svg PUBLIC "-//W3C//DTD SVG 1.1//EN" "http://www.w3.org/Graphics/SVG/1.1/DTD/svg11.dtd"><svg t="1540365312518" class="icon" style="" viewBox="0 0 1024 1024" version="1.1" xmlns="http://www.w3.org/2000/svg" p-id="1207" xmlns:xlink="http://www.w3.org/1999/xlink" width="200" height="200"><defs><style type="text/css"></style></defs><path d="M693.76 357.888l-141.824 352.768H470.528L333.824 357.888h79.36c55.808 166.4 85.504 254.464 88.576 264.192 0 3.072 1.536 8.704 4.608 16.896 3.072 12.8 4.608 20.992 4.608 24.064h2.56c0-8.192 4.096-21.504 11.776-40.96 3.072-11.264 33.792-99.328 91.136-264.192h77.312z" p-id="1208" fill="#ffffff"></path><path d="M131.072 763.392h765.952V260.096H131.072v503.296z m801.792 71.68H95.232c-19.968 0-35.84-15.872-35.84-35.84V224.256c0-19.968 15.872-35.84 35.84-35.84h837.632c19.968 0 35.84 15.872 35.84 35.84v574.976c0 19.968-16.384 35.84-35.84 35.84z" p-id="1209" fill="#ffffff"></path></svg>