<?xml version="1.0" standalone="no"?><!DOCTYPE svg PUBLIC "-//W3C//DTD SVG 1.1//EN" "http://www.w3.org/Graphics/SVG/1.1/DTD/svg11.dtd"><svg t="1528183583269" class="icon" style="" viewBox="0 0 1392 1024" version="1.1" xmlns="http://www.w3.org/2000/svg" p-id="1915" xmlns:xlink="http://www.w3.org/1999/xlink" width="271.875" height="200"><defs><style type="text/css"></style></defs><path d="M220.61056 767.40608c-21.9136 0-39.56736-17.152-39.56736-38.37952V268.48256c0-21.22752 17.664-38.37952 39.56736-38.37952h434.78016c21.73952 0 41.10336 17.152 41.10336 38.37952v460.544c0 21.22752-19.36384 38.37952-41.10336 38.37952H220.61056z m405.9136-117.00224c-11.89888-11.03872-29.21472-39.22944-92.5696-48.2304-63.34464-9.00096-26.8288-79.81056-28.8768-78.7968-2.02752 1.024 0.512-14.4384 0.512-14.4384 36.51584-19.69152 36.352-72.4992 36.352-72.4992v-37.70368s-4.07552-74.5472-62.1568-74.5472l-50.10432-16.81408c-64.70656 0-63.34464 91.36128-63.34464 91.36128s0.512-6.4512 0 32.09216S400.7936 512 400.7936 512s2.56 15.4624 0.512 14.4384c-2.03776-0.84992 19.02592 66.73408-44.15488 75.73504-63.34464 9.00096-69.80608 38.20544-81.69472 49.2544-20.54144 25.8048-16.64 64.18432-16.64 64.18432h385.6896c-0.16384 0-6.11328-54.1696-18.00192-65.20832z m687.3088-93.73696v-438.9888c0-36.67968-29.71648-66.56-66.57024-66.56H118.54848a66.57024 66.57024 0 0 0-66.58048 66.56v736.16384c0 36.67968 29.72672 66.56 66.58048 66.56h788.87936a276.3776 276.3776 0 0 0 33.792 50.95424H100.72064a99.79904 99.79904 0 0 1-99.87072-99.85024V99.84A99.79904 99.79904 0 0 1 100.7104 0h1165.23008a99.79904 99.79904 0 0 1 99.87072 99.85024v499.77344a287.87712 287.87712 0 0 0-51.97824-42.9568z m-514.42688 56.54528v-50.944h103.09632v50.944H799.40608z m0-356.9664h386.2016V307.2H799.40608v-50.944z m386.2016 203.96032H799.40608v-50.944h386.2016v50.944z m-25.97888 102.06208c128.22528 0 232.16128 103.07584 232.16128 230.0928 0 127.0272-103.936 230.11328-232.16128 230.11328S927.29344 919.38816 927.29344 792.19712s103.936-229.92896 232.33536-229.92896z m-45.34272 374.784a31.68256 31.68256 0 0 0 44.31872 0l171.8784-168.45824a30.34112 30.34112 0 0 0 0-43.4688 31.68256 31.68256 0 0 0-44.32896 0L1136.36352 871.8336l-77.6192-76.0832a31.68256 31.68256 0 0 0-44.32896 0 30.34112 30.34112 0 0 0 0 43.47904l99.87072 97.81248z" p-id="1916"></path></svg>