<?xml version="1.0" standalone="no"?><!DOCTYPE svg PUBLIC "-//W3C//DTD SVG 1.1//EN" "http://www.w3.org/Graphics/SVG/1.1/DTD/svg11.dtd"><svg t="1540365445649" class="icon" style="" viewBox="0 0 1024 1024" version="1.1" xmlns="http://www.w3.org/2000/svg" p-id="1388" xmlns:xlink="http://www.w3.org/1999/xlink" width="200" height="200"><defs><style type="text/css"></style></defs><path d="M873.813333 141.027556c0-40.675556-34.019556-84.138667-84.138666-84.138667H141.198222c-49.607111 0-84.138667 34.531556-84.138666 84.138667v773.688888c0 40.675556 34.076444 84.195556 84.195555 84.195556h427.235556c19.854222 0 32.597333-12.8 32.597333-32.654222 0-20.309333-20.764444-32.597333-40.163556-32.597334H140.743111a19.626667 19.626667 0 0 1-18.887111-18.887111V141.027556c0-9.955556 8.931556-18.887111 18.887111-18.887112h648.476445c9.898667 0 18.887111 8.931556 18.887111 18.887112v427.235555c0 19.911111 12.8 32.654222 32.654222 32.654222 20.309333 0 32.597333-20.821333 32.597333-40.163555V141.027556h0.455111z" p-id="1389" fill="#ffffff"></path><path d="M740.067556 918.072889l214.584888-251.448889 0.910223-0.512c6.656-4.209778 10.410667-8.931556 10.922666-13.198222 0.455111-5.233778-3.356444-11.832889-11.832889-20.309334a26.908444 26.908444 0 0 0-18.432-6.656c-10.865778 0-20.821333 4.266667-23.153777 6.656l-196.152889 181.020445-70.883556-55.296a37.546667 37.546667 0 0 0-26.510222-10.922667 34.247111 34.247111 0 0 0-17.464889 4.266667c-12.743111 8.533333-14.222222 21.731556-4.266667 41.585778l95.459556 124.302222c11.832889 11.832889 17.521778 11.832889 23.665778 11.832889 17.464889 0 23.153778-10.410667 23.153778-10.808889v-0.568889zM693.76 241.208889H354.872889c-19.911111 0-32.654222 12.8-32.654222 32.654222 0 18.887111 19.399111 32.597333 32.654222 32.597333h338.887111c18.887111 0 32.597333-19.342222 32.597333-32.597333 0-19.911111-12.743111-32.654222-32.597333-32.654222z m22.186667 198.997333H354.872889c-19.911111 0-32.654222 12.743111-32.654222 32.597334 0 19.911111 12.8 32.654222 32.654222 32.654222h361.073778c18.944 0 32.597333-19.399111 32.597333-32.654222 0-19.854222-12.743111-32.597333-32.597333-32.597334z m-154.567111 191.431111h-206.506667c-19.911111 0-32.654222 12.743111-32.654222 32.597334 0 19.911111 12.8 32.597333 32.654222 32.597333h198.940444c19.911111 0 32.654222-12.743111 32.654223-32.597333 0-20.309333-13.255111-32.597333-25.031112-32.597334zM251.790222 248.32a25.429333 25.429333 0 0 0-25.486222 25.543111 25.429333 25.429333 0 0 0 25.486222 25.486222 25.429333 25.429333 0 0 0 25.6-25.486222 26.055111 26.055111 0 0 0-25.6-25.6z m0 198.997333c-14.165333 0-25.486222 11.377778-25.486222 25.486223 0 14.222222 11.377778 25.543111 25.486222 25.543111 14.222222 0 25.6-11.377778 25.6-25.543111a25.713778 25.713778 0 0 0-25.6-25.486223z m0 191.886223c-14.165333 0-25.486222 11.377778-25.486222 25.486222 0 14.222222 11.377778 25.6 25.486222 25.6 14.222222 0 25.6-11.377778 25.6-25.6a25.713778 25.713778 0 0 0-25.6-25.486222z" p-id="1390" fill="#ffffff"></path></svg>