<?xml version="1.0" standalone="no"?><!DOCTYPE svg PUBLIC "-//W3C//DTD SVG 1.1//EN" "http://www.w3.org/Graphics/SVG/1.1/DTD/svg11.dtd"><svg t="1534744416309" class="icon" style="" viewBox="0 0 1024 1024" version="1.1" xmlns="http://www.w3.org/2000/svg" p-id="1010" xmlns:xlink="http://www.w3.org/1999/xlink" width="200" height="200"><defs><style type="text/css"></style></defs><path d="M61.322 466.51l107.835 0.75a410.978 410.978 0 0 1 116.697-229.928A406.055 406.055 0 0 1 574.03 118.154h2.835A406.252 406.252 0 0 1 866.304 241.23a412.436 412.436 0 0 1 118.311 293.218c-1.575 227.092-185.383 410.782-410.387 410.782h-2.797a30.523 30.523 0 0 1-30.326-30.72 30.523 30.523 0 0 1 30.523-30.563h2.56c191.685 0 348.318-156.475 349.618-349.932A351.232 351.232 0 0 0 823.06 284.239a345.876 345.876 0 0 0-246.548-104.803h-2.363A345.994 345.994 0 0 0 328.625 280.93a350.326 350.326 0 0 0-98.028 186.684l119.572 0.827c20.913 0.157 27.648 13.981 14.966 30.72L222.72 687.93c-12.682 16.739-32.886 16.384-44.898-0.827L45.252 497.506c-12.09-17.171-4.883-31.113 16.07-30.995" p-id="1011"></path></svg>