<?xml version="1.0" standalone="no"?><!DOCTYPE svg PUBLIC "-//W3C//DTD SVG 1.1//EN" "http://www.w3.org/Graphics/SVG/1.1/DTD/svg11.dtd"><svg t="1531223613584" class="icon" style="" viewBox="0 0 1024 1024" version="1.1" xmlns="http://www.w3.org/2000/svg" p-id="2295" xmlns:xlink="http://www.w3.org/1999/xlink" width="200" height="200"><defs><style type="text/css"></style></defs><path d="M612.801795 227.091299l-79.910231 146.815464a818.897072 818.897072 0 0 0-39.014996 79.283485h-1.201265q-20.891564-47.632765-118.664082-226.098949H299.114965l139.34673 239.417321H323.975926v53.064572H458.047536v72.650413H323.975926v53.795777H458.047536V752.096297h66.59186v-106.076915h129.162093v-53.795777h-129.162093V519.573192h129.162093V466.50862h-110.881975l141.018056-239.417321z" fill="#ffffff" p-id="2296"></path><path d="M809.704784 662.471488a130.990105 130.990105 0 1 1-130.990105-130.937876 130.990105 130.990105 0 0 1 130.990105 130.937876z m-152.090584 83.148424l122.58125-141.018055-28.882587-25.069877-97.929205 112.501071-51.497705-43.872284-24.704274 29.039274 80.328063 68.419871z" fill="#ffffff" p-id="2297"></path><path d="M512 0a511.843313 511.843313 0 1 0 511.843313 511.843313 512.522289 512.522289 0 0 0-511.843313-511.843313z m0 968.741814A456.794043 456.794043 0 1 1 968.794043 511.843313a457.316332 457.316332 0 0 1-456.794043 456.898501z" fill="#ffffff" p-id="2298"></path></svg>