<?xml version="1.0" standalone="no"?><!DOCTYPE svg PUBLIC "-//W3C//DTD SVG 1.1//EN" "http://www.w3.org/Graphics/SVG/1.1/DTD/svg11.dtd"><svg t="1531221071694" class="icon" style="" viewBox="0 0 1024 1024" version="1.1" xmlns="http://www.w3.org/2000/svg" p-id="1439" xmlns:xlink="http://www.w3.org/1999/xlink" width="200" height="200"><defs><style type="text/css"></style></defs><path d="M844.8 64l-108.8 0 0 57.6c0 32-25.6 57.6-57.6 57.6-32 0-57.6-25.6-57.6-57.6L620.8 64 403.2 64l0 57.6c0 32-25.6 57.6-57.6 57.6-32 0-57.6-25.6-57.6-57.6L288 64 179.2 64C115.2 64 64 115.2 64 172.8l0 665.6c0 64 51.2 115.2 115.2 115.2l665.6 0c64 0 115.2-51.2 115.2-115.2L960 172.8C960 115.2 908.8 64 844.8 64zM864 812.8c0 32-25.6 51.2-51.2 51.2L217.6 864c-32 0-51.2-25.6-51.2-51.2L166.4 403.2c0-32 25.6-51.2 51.2-51.2l595.2 0c32 0 51.2 25.6 51.2 51.2L864 812.8z" p-id="1440"></path><path d="M288 460.8l96 0 0 96-96 0 0-96Z" p-id="1441"></path><path d="M467.2 460.8l96 0 0 96-96 0 0-96Z" p-id="1442"></path><path d="M640 460.8l96 0 0 96-96 0 0-96Z" p-id="1443"></path><path d="M640 633.6l96 0 0 96-96 0 0-96Z" p-id="1444"></path><path d="M467.2 633.6l96 0 0 96-96 0 0-96Z" p-id="1445"></path><path d="M288 633.6l96 0 0 96-96 0 0-96Z" p-id="1446"></path></svg>