<?xml version="1.0" standalone="no"?><!DOCTYPE svg PUBLIC "-//W3C//DTD SVG 1.1//EN" "http://www.w3.org/Graphics/SVG/1.1/DTD/svg11.dtd"><svg t="1529908592872" class="icon" style="" viewBox="0 0 1024 1024" version="1.1" xmlns="http://www.w3.org/2000/svg" p-id="3600" xmlns:xlink="http://www.w3.org/1999/xlink" width="200" height="200"><defs><style type="text/css"></style></defs><path d="M688.27257 543.337346a284.177497 284.177497 0 0 0-73.120474-41.783128 179.719678 179.719678 0 0 0 78.343365-148.747934 181.599918 181.599918 0 1 0-363.147608-1.253494 179.719678 179.719678 0 0 0 78.343364 148.747934 285.013159 285.013159 0 0 0-180.973172 265.270632h50.818729a234.298888 234.298888 0 0 1 205.781904-231.791901 405.453025 405.453025 0 0 1 58.235234 0h2.454759a234.403346 234.403346 0 0 1 92.392941 34.366623M511.164337 487.765786a136.369683 136.369683 0 1 1 136.317454-136.369683 135.795165 135.795165 0 0 1-136.317454 136.369683z" fill="#ffffff" p-id="3601"></path><path d="M844.332551 668.686729a130.990105 130.990105 0 1 1-130.990105-130.990106 130.937876 130.937876 0 0 1 130.990105 130.990106z m-152.090584 83.148424l122.58125-141.018056-28.882587-25.069877-97.824747 112.657758-51.497705-43.872284-24.704274 29.091503 80.328063 68.419871z" fill="#ffffff" p-id="3602"></path><path d="M512 0.156687a511.843313 511.843313 0 1 0 511.843313 511.843313 512.522289 512.522289 0 0 0-511.843313-511.843313z m0 968.741813a456.794043 456.794043 0 1 1 456.794043-456.8985 457.316332 457.316332 0 0 1-456.794043 456.741814z" fill="#ffffff" p-id="3603"></path></svg>