<?xml version="1.0" standalone="no"?><!DOCTYPE svg PUBLIC "-//W3C//DTD SVG 1.1//EN" "http://www.w3.org/Graphics/SVG/1.1/DTD/svg11.dtd"><svg t="1540364056334" class="icon" style="" viewBox="0 0 1024 1024" version="1.1" xmlns="http://www.w3.org/2000/svg" p-id="3439" xmlns:xlink="http://www.w3.org/1999/xlink" width="200" height="200"><defs><style type="text/css"></style></defs><path d="M512 1024a512 512 0 1 1 512-512 512.568889 512.568889 0 0 1-512 512z m0-953.871515A441.871515 441.871515 0 1 0 953.871515 512 442.388687 442.388687 0 0 0 512 70.128485z" fill="#ffffff" p-id="3440"></path><path d="M825.819798 471.143434H252.069495v-67.232323h462.868687l-38.425859-26.375757 43.442424-54.147879 127.534546 86.936565a32.426667 32.426667 0 0 1 13.032727 37.650101 36.20202 36.20202 0 0 1-34.702222 23.169293z m-467.885253 229.469091l-127.534545-86.936565a32.426667 32.426667 0 0 1-13.187879-37.650101 36.512323 36.512323 0 0 1 34.702222-23.169293h573.905455v67.232323h-462.868687l38.425859 26.375757z" fill="#ffffff" p-id="3441"></path></svg>