<?xml version="1.0" standalone="no"?><!DOCTYPE svg PUBLIC "-//W3C//DTD SVG 1.1//EN" "http://www.w3.org/Graphics/SVG/1.1/DTD/svg11.dtd"><svg t="1540363071440" class="icon" style="" viewBox="0 0 1024 1024" version="1.1" xmlns="http://www.w3.org/2000/svg" p-id="2850" xmlns:xlink="http://www.w3.org/1999/xlink" width="200" height="200"><defs><style type="text/css"></style></defs><path d="M736.0032 448.006399a255.989761 255.989761 0 1 0-5.733827 511.948805h5.733827a255.974403 255.974403 0 0 0 0-511.948805z m102.389761 98.80612l22.628137 22.576942-99.830017 99.830017-22.679332-22.628137 99.881212-99.778822z m-205.240276 0l99.932406 99.778822-22.628137 22.628137-99.727627-99.830017 22.628137-22.576942z m230.376962 157.219478h-95.580842v63.9936h96.041596v32.047996h-96.041596v95.939206h-63.942406v-95.990401H607.964804v-31.996801h96.041595v-63.9936H607.964804v-32.047995h255.974402v32.047995z m-447.955204 0a318.176182 318.176182 0 0 1 43.157284-160.035197H176.033597a15.921608 15.921608 0 0 1-15.972803-15.972802v-31.996801a15.972803 15.972803 0 0 1 15.921608-16.023997H507.622838a320.377562 320.377562 0 0 1 324.370763-81.297471V63.993601A63.993601 63.993601 0 0 0 768 0.10239H32.022398v959.904009a63.993601 63.993601 0 0 0 63.9936 63.993601h639.936007a319.865613 319.865613 0 0 1-319.968003-319.968003z m-255.974403-400.036797a15.921608 15.921608 0 0 1 15.972803-15.972802h511.948805a15.972803 15.972803 0 0 1 15.972803 15.972802v31.996801a15.921608 15.921608 0 0 1-15.921608 15.972803h-511.948805a15.921608 15.921608 0 0 1-15.972803-15.972803z m159.932807 416.060794a15.972803 15.972803 0 0 1-15.972803 15.972803h-127.987201a15.972803 15.972803 0 0 1-15.972803-15.972803v-32.047995a15.972803 15.972803 0 0 1 15.921608-16.023997h127.987201a16.023998 16.023998 0 0 1 15.972803 16.023997z" fill="" p-id="2851"></path></svg>