<?xml version="1.0" standalone="no"?><!DOCTYPE svg PUBLIC "-//W3C//DTD SVG 1.1//EN" "http://www.w3.org/Graphics/SVG/1.1/DTD/svg11.dtd"><svg t="1528099512719" class="icon" style="" viewBox="0 0 1024 1024" version="1.1" xmlns="http://www.w3.org/2000/svg" p-id="4290" xmlns:xlink="http://www.w3.org/1999/xlink" width="200" height="200"><defs><style type="text/css"></style></defs><path d="M888.5248 777.4208c5.7344 36.4544 36.4544 30.72 42.1888 46.08 0 9.6256-5.7344 46.08-21.0944 51.8144-15.36 0-36.4544-5.7344-51.8144 0-9.6256 5.7344-21.0944 9.6256-26.8288 21.0944-9.6256 26.8288 9.6256 46.08 0 57.5488-15.36 9.6256-46.08 26.8288-57.5488 15.36-15.36-15.36-15.36-36.4544-46.08-36.4544-42.1888 0-42.1888 42.1888-61.44 42.1888-21.0944 0-57.5488-15.36-57.5488-30.72 5.7344-21.0944 15.36-36.4544-5.7344-57.5488-26.8288-21.0944-57.5488 0-67.1744-9.6256-15.36-9.6256-21.0944-36.4544-15.36-51.8144 5.7344-15.36 42.1888-15.36 42.1888-57.5488 0-30.72-36.4544-36.4544-42.1888-57.5488-5.7344-15.36 5.7344-42.1888 21.0944-46.08 26.8288-9.6256 42.1888 9.6256 67.1744-9.6256 15.36-15.36 9.6256-51.8144 9.6256-61.44 5.7344-15.36 26.8288-21.0944 42.1888-21.0944 30.72 0 21.0944 36.4544 61.44 42.1888 42.1888 0 36.4544-15.36 57.5488-42.1888 26.8288 0 46.08 9.6256 51.8144 21.0944 9.6256 21.0944-9.6256 51.8144 21.0944 72.9088 26.8288 15.36 51.8144-5.7344 67.1744 0 9.6256 5.7344 15.36 21.0944 21.0944 42.1888-9.5232 26.9312-57.5488 23.1424-51.8144 69.2224zM702.464 673.792c-124.7232 30.72-76.6976 211.0464 42.1888 191.7952C863.6416 838.7584 846.336 646.9632 702.464 673.792zM489.5744 493.4656c-124.7232 0-222.5152-97.792-222.5152-222.5152S364.8512 48.3328 489.5744 48.3328s222.5152 97.792 222.5152 222.5152c0 118.9888-97.8944 222.6176-222.5152 222.6176zM671.744 543.3344s-82.5344 0-76.6976 57.5488c5.7344 61.44-76.6976 15.36-92.0576 67.1744-21.0944 61.3376 9.6256 51.8144 26.8288 92.0576 9.6256 26.8288-42.1888 42.1888-36.4544 88.2688 9.6256 61.44 61.44 30.72 76.6976 67.1744 9.6256 30.72-26.8288 51.8144-109.3632 51.8144-67.1744 0-195.6864 0-243.6096-5.7344 0 0-134.2464-5.7344-134.2464-92.0576 0 0-5.7344-130.4576 76.6976-222.5152 0 0 88.2688-113.152 237.8752-113.152l274.3296 9.4208z m0 0" fill="" p-id="4291"></path></svg>