<?xml version="1.0" encoding="utf-8"?>
<!-- Generator: Adobe Illustrator 22.0.0, SVG Export Plug-In . SVG Version: 6.00 Build 0)  -->
<svg version="1.1" id="图层_1" xmlns="http://www.w3.org/2000/svg" xmlns:xlink="http://www.w3.org/1999/xlink" x="0px" y="0px"
	 viewBox="0 0 200 200" style="enable-background:new 0 0 200 200;" xml:space="preserve">
<style type="text/css">
	.st0{fill:#AAAAAA;}
</style>
<path class="st0" d="M141.9,109.7c-10.5,9.2-24.2,14.8-39.3,14.8s-28.8-5.6-39.3-14.8c-27.6,14.6-44.8,43.2-44.8,74.4h168.3
	C186.8,152.9,169.5,124.3,141.9,109.7L141.9,109.7z M102.6,114c27.1,0,49.1-22,49.1-49.1c0,0,0,0,0,0c0-27.1-22-49.1-49.1-49.1
	s-49.1,22-49.1,49.1C53.5,92,75.5,114,102.6,114L102.6,114z"/>
</svg>
